<svg width="58" height="58" viewBox="0 0 58 58" fill="none" xmlns="http://www.w3.org/2000/svg">
<path d="M26.7666 15.5352C26.7666 16.4118 27.4738 17.1424 28.3232 17.1426H31V20H28.3232C25.947 19.9998 24 17.9893 24 15.5352V11.0713H26.7666V15.5352ZM40.5674 11.0713C40.8058 11.0715 41 11.2728 41 11.5186V13H32.832V11.5186C32.832 11.2722 33.027 11.0713 33.2656 11.0713H40.5674ZM40.5664 5C40.805 5 41 5.20087 41 5.44727V7.41016C41 7.65607 40.805 7.85742 40.5664 7.85742H24.292C24.9202 6.19058 26.4941 5.00017 28.3232 5H40.5664Z" fill="#E5622A"/>
<path fill-rule="evenodd" clip-rule="evenodd" d="M5.46666 5H19.3399C21.9018 5 24 7.01011 24 9.46439V15.5356C24 17.9894 21.9018 20 19.3404 20H5.46666C5.20947 20 5 19.7993 5 19.5529V18.7945V18.3474V17.5895C5 17.3431 5.20947 17.1424 5.46666 17.1424H8.1737H8.36509H11.5071H19.3394C20.2552 17.1424 21.0172 16.4124 21.0172 15.5356V9.46439C21.0172 8.58758 20.2552 7.85756 19.3399 7.85756H11.5071H8.36509H8.1737H5.46666C5.20947 7.85756 5 7.6564 5 7.41049V6.65207V6.20549V5.44706C5 5.20067 5.20947 5 5.46666 5Z" fill="#E5622A"/>
<path d="M7.82812 20.8184C8.07314 20.8185 8.27342 21.0181 8.27344 21.2637V35.3262C8.27325 35.5716 8.07266 35.7715 7.82715 35.7715H5.87012C5.62508 35.7715 5.42499 35.5716 5.4248 35.3262V21.2637C5.42482 21.0182 5.62468 20.8186 5.87012 20.8184H7.82812Z" fill="#0D2F6E"/>
<path d="M22 30.4664V35.5336C22 35.7907 21.7893 36 21.5306 36H19.4694C19.2107 36 19 35.7907 19 35.5336V30.4664C19 30.2093 19.2107 30 19.4694 30H21.5306C21.7893 30 22 30.2093 22 30.4664Z" fill="#0D2F6E"/>
<path d="M11.4059 30L17.5941 30C17.8178 30 18 29.7893 18 29.5311L18 27.4694C18 27.2107 17.8178 27 17.5941 27L11.4059 27C11.1822 27 11 27.2107 11 27.4689L11 29.5306C11 29.7893 11.1822 30 11.4059 30Z" fill="#0D2F6E"/>
<path d="M19 21.4637L19 26.5363C19 26.7919 19.2107 27 19.4689 27L21.5306 27C21.7893 27 22 26.7919 22 26.5363L22 21.4637C22 21.2081 21.7893 21 21.5311 21L19.4694 21C19.2107 21 19 21.2081 19 21.4637Z" fill="#0D2F6E"/>
<path fill-rule="evenodd" clip-rule="evenodd" d="M30 28.5L21.9475 21.1198C21.861 21.0399 21.7595 21 21.642 21H19.449C19.2015 21 19 21.2007 19 21.4471V22.2921L29 31.5L30 28.5Z" fill="#0D2F6E"/>
<path d="M42.7231 13C43.4623 13.0003 44.0669 13.5908 44.0669 14.3125C44.0669 15.0342 43.4623 15.6247 42.7231 15.625H41.3784V24.3789L54.6675 45.9961C57.7112 50.9492 55.3611 54.9997 49.4458 55H22.5552C16.6394 54.9999 14.2886 50.9468 17.3325 45.9961L30.6226 24.3789V15.625H29.2778C28.5384 15.6249 27.9331 15.0343 27.9331 14.3125C27.9331 13.5907 28.5384 13.0001 29.2778 13H42.7231ZM38.4995 48C37.6713 48.0003 36.9995 48.6717 36.9995 49.5C36.9995 50.3283 37.6713 50.9997 38.4995 51C39.3279 51 39.9995 50.3284 39.9995 49.5C39.9995 48.6716 39.3279 48 38.4995 48ZM29.5005 42C28.1198 42.0001 27.0005 43.1193 27.0005 44.5C27.0005 45.8807 28.1198 46.9999 29.5005 47C30.8809 46.9997 32.0005 45.8805 32.0005 44.5C32.0005 43.1195 30.8809 42.0003 29.5005 42ZM33.311 25.1016L24.6147 39.25H37.0356C37.3239 40.3956 38.3176 41.241 39.5015 41.2412C40.6853 41.241 41.6801 40.3957 41.9683 39.25H47.3853L38.689 25.1016V15.625H33.311V25.1016Z" fill="#0D2F6E"/>
<path d="M39.5 36C40.8807 36 42 37.3431 42 39H37C37 37.3431 38.1193 36 39.5 36Z" fill="#0D2F6E"/>
</svg>
