<svg width="201" height="89" viewBox="0 0 201 89" fill="none" xmlns="http://www.w3.org/2000/svg">
<g filter="url(#filter0_d_85_14)">
<path d="M115.333 87.8458C115.333 102.757 103.126 114.846 88.0666 114.846C73.0081 114.846 60.8001 102.757 60.8001 87.8458C60.8001 72.9335 73.0077 60.8465 88.0666 60.8465C103.126 60.8465 115.333 72.9335 115.333 87.8458Z" fill="#2B8FB6"/>
<path d="M186.037 105.099C186.037 130.597 165.16 151.269 139.41 151.269C113.66 151.269 92.7852 130.597 92.7852 105.099C92.7852 79.5997 113.66 58.9302 139.41 58.9302C165.16 58.9302 186.037 79.5997 186.037 105.099Z" fill="#2B8FB6"/>
<path d="M90.8987 90.7622C90.8987 124.32 63.423 151.526 29.5328 151.526C-4.35585 151.526 -31.8299 124.32 -31.8299 90.7622C-31.8299 57.2023 -4.35585 30 29.5328 30C63.423 30 90.8987 57.2023 90.8987 90.7622Z" fill="#2B8FB6"/>
</g>
<defs>
<filter id="filter0_d_85_14" x="-95.7098" y="0" width="295.747" height="151.526" filterUnits="userSpaceOnUse" color-interpolation-filters="sRGB">
<feFlood flood-opacity="0" result="BackgroundImageFix"/>
<feColorMatrix in="SourceAlpha" type="matrix" values="0 0 0 0 0 0 0 0 0 0 0 0 0 0 0 0 0 0 127 0" result="hardAlpha"/>
<feOffset dy="-16"/>
<feGaussianBlur stdDeviation="7"/>
<feComposite in2="hardAlpha" operator="out"/>
<feColorMatrix type="matrix" values="0 0 0 0 0 0 0 0 0 0 0 0 0 0 0 0 0 0 0.25 0"/>
<feBlend mode="normal" in2="BackgroundImageFix" result="effect1_dropShadow_85_14"/>
<feBlend mode="normal" in="SourceGraphic" in2="effect1_dropShadow_85_14" result="shape"/>
</filter>
</defs>
</svg>
