<svg width="163" height="86" viewBox="0 0 163 86" fill="none" xmlns="http://www.w3.org/2000/svg">
<g filter="url(#filter0_d_85_114)">
<path d="M85.5153 2C93.5306 2 100.264 7.43187 102.168 14.7809C102.809 14.6647 103.466 14.5954 104.141 14.5954C110.124 14.5954 114.974 19.3986 114.974 25.3223C114.974 25.5064 114.955 25.686 114.945 25.8669C115.556 25.7599 116.181 25.6939 116.821 25.6939C120.447 25.6939 123.644 27.4896 125.57 30.2287C125.577 30.2352 125.583 30.241 125.59 30.2482C127.775 33.1818 130.265 37.8838 134.017 39.8582C136.477 41.151 143.217 42.5457 145.526 43.4508C146.396 43.7915 146.473 44.1683 145.662 44.5266C145.347 44.6655 144.932 44.3549 144.222 44.3886C136.95 44.7384 132.904 43.4593 129.209 43.2256C126.702 43.0692 124.202 44.2006 122.853 44.9462C122.528 45.1675 122.192 45.3724 121.844 45.556C121.841 45.5587 121.829 45.5664 121.829 45.5664C121.829 45.5648 121.828 45.5639 121.828 45.5639C120.335 46.3513 118.632 46.8017 116.821 46.8017C110.935 46.8017 106.163 42.0762 106.163 36.2475C106.163 36.1135 106.179 35.9845 106.183 35.8519C105.521 35.9782 104.839 36.049 104.14 36.049C100.929 36.049 98.052 34.6574 96.0687 32.4584C93.1552 34.707 89.4941 36.049 85.5149 36.049C76.0202 36.049 68.3225 28.426 68.3225 19.0235C68.323 9.6218 76.0206 2 85.5153 2Z" fill="white"/>
<path d="M61.9138 38.8878C61.9138 45.9422 67.6907 51.6617 74.8138 51.6617C81.9384 51.6617 87.7134 45.9422 87.7134 38.8878C87.7134 31.833 81.9383 26.1138 74.8138 26.1138C67.6907 26.1138 61.9138 31.8332 61.9138 38.8878Z" fill="#F7F8F8"/>
<path d="M42.3144 38.369C42.3144 44.9272 47.6833 50.245 54.3071 50.245C60.9312 50.245 66.3001 44.9272 66.3001 38.369C66.3001 31.8108 60.9312 26.4932 54.3071 26.4932C47.6831 26.493 42.3144 31.8108 42.3144 38.369Z" fill="#F7F8F8"/>
<path d="M57.8158 27.5581C57.8158 33.4821 62.6659 38.2847 68.648 38.2847C74.6305 38.2847 79.4808 33.4823 79.4808 27.5581C79.4808 21.6342 74.6305 16.8304 68.648 16.8304C62.6659 16.8305 57.8158 21.6343 57.8158 27.5581Z" fill="#F7F8F8"/>
<path d="M67.7901 19.4443C67.7901 28.8469 75.488 36.4697 84.9824 36.4697C94.4778 36.4697 102.175 28.8469 102.175 19.4443C102.175 10.0427 94.4778 2.42021 84.9824 2.42021C75.488 2.42021 67.7901 10.0427 67.7901 19.4443Z" fill="#F7F8F8"/>
<path d="M78.3744 39.2326C77.8873 29.8424 85.1795 21.8391 94.6621 21.3568C104.145 20.8745 112.227 28.0957 112.714 37.4859C113.201 46.8761 105.909 54.8794 96.4261 55.3617C86.9435 55.8441 78.8615 48.6228 78.3744 39.2326Z" fill="#F7F8F8"/>
<path d="M47.7873 48.3341C47.7873 48.3341 43.073 45.5948 40.2047 45.9742C34.4544 46.7346 31.3809 47.8891 25.6572 47.8891C16.5146 47.8891 11.8766 47.4436 20.7805 45.3169C29.6854 43.1929 34.1628 41.4076 38.4556 37.4723C42.7487 33.5359 45.8468 28.9002 49.3458 27.5581C52.8446 26.2152 57.3554 46.4443 47.7873 48.3341Z" fill="#F7F8F8"/>
<path d="M83.3706 42.2058C83.3706 47.857 87.9966 52.4379 93.7043 52.4379C99.4117 52.4379 104.037 47.857 104.037 42.2058C104.037 36.5556 99.4115 31.9731 93.7043 31.9731C87.9968 31.9731 83.3706 36.5556 83.3706 42.2058Z" fill="url(#paint0_radial_85_114)"/>
<path d="M57.2807 34.1928C57.2807 41.5573 63.3097 47.5264 70.747 47.5264C78.1841 47.5264 84.2124 41.5573 84.2124 34.1928C84.2124 26.8274 78.1841 20.8578 70.747 20.8578C63.3099 20.8576 57.2807 26.8274 57.2807 34.1928Z" fill="url(#paint1_radial_85_114)"/>
<path d="M81.2915 39.0654C81.2915 44.2972 85.5749 48.5388 90.8584 48.5388C96.1437 48.5388 100.428 44.2972 100.428 39.0654C100.428 33.8325 96.1437 29.5913 90.8584 29.5913C85.5749 29.5913 81.2915 33.8325 81.2915 39.0654Z" fill="white"/>
<path d="M80.8456 38.8604C80.8456 44.0929 85.1296 48.334 90.4145 48.334C95.6983 48.334 99.983 44.0929 99.983 38.8604C99.983 33.6276 95.6983 29.387 90.4145 29.387C85.1296 29.387 80.8456 33.6276 80.8456 38.8604Z" fill="#F7F8F8"/>
<path d="M62.2046 31.41C62.2046 38.0987 67.6808 43.5211 74.4356 43.5211C81.1915 43.5211 86.6671 38.0987 86.6671 31.41C86.6671 24.7194 81.1915 19.298 74.4356 19.298C67.6808 19.298 62.2046 24.7192 62.2046 31.41Z" fill="white"/>
<path d="M62.5828 31.1345C62.5828 37.8227 68.0587 43.2451 74.8138 43.2451C81.569 43.2451 87.0457 37.8227 87.0457 31.1345C87.0457 24.4433 81.569 19.0228 74.8138 19.0228C68.0587 19.0228 62.5828 24.4433 62.5828 31.1345Z" fill="#F7F8F8"/>
<path d="M105.632 36.6676C105.632 42.4967 110.403 47.2223 116.29 47.2223C122.176 47.2223 126.948 42.4965 126.948 36.6676C126.948 30.8404 122.176 26.114 116.29 26.114C110.402 26.1138 105.632 30.8404 105.632 36.6676Z" fill="#F7F8F8"/>
<path d="M67.864 22.7878C67.864 31.267 74.8069 38.1432 83.3714 38.1432C91.936 38.1432 98.8778 31.267 98.8778 22.7878C98.8778 14.306 91.9362 7.43141 83.3714 7.43141C74.8069 7.43141 67.864 14.306 67.864 22.7878Z" fill="url(#paint2_radial_85_114)"/>
<path d="M121.297 45.9862C121.297 45.9862 124.983 43.4151 128.678 43.6465C132.372 43.8792 136.418 45.1588 143.69 44.81C150.961 44.4592 137.239 42.2529 133.486 40.2786C129.733 38.3045 127.243 33.6025 125.058 30.6684C122.872 27.7367 116.204 39.6152 121.297 45.9862Z" fill="#F7F8F8"/>
<path d="M72.4241 20.8785C72.4241 27.8941 78.167 33.5811 85.2508 33.5811C92.3349 33.5811 98.0777 27.8941 98.0777 20.8785C98.0777 13.8645 92.3349 8.17805 85.2508 8.17805C78.167 8.17805 72.4241 13.8645 72.4241 20.8785Z" fill="white"/>
<path d="M72.67 20.4221C72.67 27.4678 78.4377 33.1798 85.5526 33.1798C92.6683 33.1798 98.4352 27.4678 98.4352 20.4221C98.4352 13.3772 92.6681 7.66556 85.5526 7.66556C78.4377 7.66556 72.67 13.3772 72.67 20.4221Z" fill="#F7F8F8"/>
<path d="M89.8579 28.6765C89.8579 35.4116 95.3733 40.8734 102.175 40.8734C108.978 40.8734 114.492 35.4116 114.492 28.6765C114.492 21.9406 108.978 16.4795 102.175 16.4795C95.3733 16.4797 89.8579 21.9406 89.8579 28.6765Z" fill="url(#paint3_radial_85_114)"/>
<path d="M75.4445 16.8305C75.4445 22.5129 80.096 27.1187 85.8346 27.1187C91.5729 27.1187 96.2251 22.5129 96.2251 16.8305C96.2251 11.1486 91.5729 6.54192 85.8346 6.54192C80.096 6.54174 75.4445 11.1486 75.4445 16.8305Z" fill="url(#paint4_radial_85_114)"/>
<path d="M92.7759 25.7429C92.7759 31.6664 97.6267 36.4696 103.609 36.4696C109.591 36.4696 114.441 31.6664 114.441 25.7429C114.441 19.8196 109.591 15.0155 103.609 15.0155C97.6267 15.0155 92.7759 19.8198 92.7759 25.7429Z" fill="#F7F8F8"/>
<path d="M66.0814 29.8172C66.0814 33.9518 69.4661 37.3024 73.6406 37.3024C77.8149 37.3024 81.1991 33.9518 81.1991 29.8172C81.1991 25.6837 77.8149 22.3328 73.6406 22.3328C69.4661 22.3328 66.0814 25.6837 66.0814 29.8172Z" fill="url(#paint5_radial_85_114)"/>
<path d="M48.7945 37.5648C48.7945 42.7549 53.042 46.9594 58.2818 46.9594C63.522 46.9594 67.7691 42.7549 67.7691 37.5648C67.7691 32.377 63.522 28.1706 58.2818 28.1706C53.0419 28.1706 48.7945 32.3768 48.7945 37.5648Z" fill="url(#paint6_radial_85_114)"/>
<path d="M104.744 36.2101C104.744 41.259 108.874 45.3489 113.971 45.3489C119.067 45.3489 123.197 41.259 123.197 36.2101C123.197 31.1658 119.067 27.0752 113.971 27.0752C108.874 27.0752 104.744 31.1658 104.744 36.2101Z" fill="url(#paint7_radial_85_114)"/>
<path d="M93.8047 25.9494C93.8047 30.2257 97.3065 33.6933 101.626 33.6933C105.946 33.6933 109.446 30.2257 109.446 25.9494C109.446 21.6724 105.946 18.2039 101.626 18.2039C97.3065 18.2039 93.8047 21.6724 93.8047 25.9494Z" fill="url(#paint8_radial_85_114)"/>
<path d="M64.9783 28.3313C64.9783 32.1578 68.1104 35.2591 71.974 35.2591C75.838 35.2591 78.969 32.1578 78.969 28.3313C78.969 24.5054 75.838 21.4055 71.974 21.4055C68.1104 21.4055 64.9783 24.5054 64.9783 28.3313Z" fill="white"/>
<path d="M64.0166 27.7304C64.0166 31.7816 67.3328 35.0661 71.425 35.0661C75.5164 35.0661 78.8337 31.7816 78.8337 27.7304C78.8337 23.6791 75.5164 20.3954 71.425 20.3954C67.3328 20.3954 64.0166 23.6791 64.0166 27.7304Z" fill="#F7F8F8"/>
<path d="M49.0466 35.2581C49.0466 39.5556 52.5654 43.0397 56.9055 43.0397C61.246 43.0397 64.7646 39.5556 64.7646 35.2581C64.7646 30.9608 61.246 27.4769 56.9055 27.4769C52.5654 27.4769 49.0466 30.9606 49.0466 35.2581Z" fill="white"/>
<path d="M48.6634 35.0656C48.6634 39.392 52.205 42.8999 56.5745 42.8999C60.945 42.8999 64.4859 39.3922 64.4859 35.0656C64.4859 30.7392 60.945 27.2318 56.5745 27.2318C52.205 27.2318 48.6634 30.7392 48.6634 35.0656Z" fill="#F7F8F8"/>
<path d="M106.369 38.0984C106.369 42.4248 109.911 45.9327 114.28 45.9327C118.65 45.9327 122.193 42.425 122.193 38.0984C122.193 33.7709 118.65 30.2646 114.28 30.2646C109.911 30.2646 106.369 33.7709 106.369 38.0984Z" fill="white"/>
<path d="M106.58 38.3678C106.58 42.6942 110.122 46.2033 114.491 46.2033C118.861 46.2033 122.404 42.6943 122.404 38.3678C122.404 34.041 118.861 30.5347 114.491 30.5347C110.122 30.5347 106.58 34.0408 106.58 38.3678Z" fill="#F7F8F8"/>
<path d="M50.0194 35.4749C50.0194 38.5601 52.5456 41.0613 55.6613 41.0613C58.7781 41.0613 61.3037 38.5602 61.3037 35.4749C61.3037 32.389 58.7783 29.8878 55.6613 29.8878C52.5458 29.8878 50.0194 32.389 50.0194 35.4749Z" fill="url(#paint9_radial_85_114)"/>
<path d="M84.7758 38.8606C84.7758 42.3324 87.6178 45.146 91.1239 45.146C94.6302 45.146 97.4721 42.3324 97.4721 38.8606C97.4721 35.3897 94.6303 32.5738 91.1239 32.5738C87.6178 32.5738 84.7758 35.3897 84.7758 38.8606Z" fill="url(#paint10_radial_85_114)"/>
<path d="M49.2955 35.4747C49.2955 38.0613 51.4142 40.1594 54.0272 40.1594C56.6401 40.1594 58.7588 38.0611 58.7588 35.4747C58.7588 32.8875 56.6401 30.7908 54.0272 30.7908C51.4142 30.7908 49.2955 32.8875 49.2955 35.4747Z" fill="white"/>
<path d="M48.8193 35.4747C48.8193 38.0613 50.9379 40.1594 53.55 40.1594C56.163 40.1594 58.2816 38.0611 58.2816 35.4747C58.2816 32.8875 56.1628 30.7908 53.55 30.7908C50.9379 30.7908 48.8193 32.8875 48.8193 35.4747Z" fill="#F7F8F8"/>
<path d="M82.7304 40.1621C82.7304 43.4591 85.4304 46.1332 88.7599 46.1332C92.0898 46.1332 94.7899 43.4591 94.7899 40.1621C94.7899 36.8658 92.0898 34.1929 88.7599 34.1929C85.4304 34.1929 82.7304 36.8657 82.7304 40.1621Z" fill="white"/>
<path d="M82.3323 40.5417C82.3323 43.8385 85.0333 46.5123 88.3629 46.5123C91.6927 46.5123 94.3927 43.8385 94.3927 40.5417C94.3927 37.2451 91.6927 34.5729 88.3629 34.5729C85.0333 34.5727 82.3323 37.2451 82.3323 40.5417Z" fill="#F7F8F8"/>
<path d="M64.764 28.1713C64.764 31.091 67.1557 33.4583 70.1036 33.4583C73.0532 33.4583 75.4445 31.091 75.4445 28.1713C75.4445 25.2489 73.0532 22.8824 70.1036 22.8824C67.1557 22.8822 64.764 25.2489 64.764 28.1713Z" fill="url(#paint11_radial_85_114)"/>
<path d="M65.6094 29.1375C65.6094 31.5503 67.5852 33.5072 70.022 33.5072C72.4595 33.5072 74.4364 31.5503 74.4364 29.1375C74.4364 26.7244 72.4595 24.768 70.022 24.768C67.5852 24.768 65.6094 26.7244 65.6094 29.1375Z" fill="white"/>
<path d="M65.6094 29.5914C65.6094 32.0044 67.5852 33.9616 70.022 33.9616C72.4595 33.9616 74.4364 32.0044 74.4364 29.5914C74.4364 27.1778 72.4595 25.2219 70.022 25.2219C67.5852 25.2218 65.6094 27.1778 65.6094 29.5914Z" fill="#F7F8F8"/>
<path d="M110.648 40.1595C110.648 43.2452 113.173 45.747 116.29 45.747C119.406 45.747 121.933 43.2454 121.933 40.1595C121.933 37.0742 119.406 34.5728 116.29 34.5728C113.173 34.5728 110.648 37.0742 110.648 40.1595Z" fill="url(#paint12_radial_85_114)"/>
<path d="M112.359 39.3646C112.359 41.9521 114.477 44.0493 117.09 44.0493C119.703 44.0493 121.821 41.9521 121.821 39.3646C121.821 36.7772 119.703 34.6796 117.09 34.6796C114.477 34.6796 112.359 36.7772 112.359 39.3646Z" fill="white"/>
<path d="M112.73 39.2595C112.73 41.8464 114.849 43.9445 117.462 43.9445C120.074 43.9445 122.193 41.8462 122.193 39.2595C122.193 36.6721 120.074 34.5748 117.462 34.5748C114.848 34.5748 112.73 36.6721 112.73 39.2595Z" fill="#F7F8F8"/>
<path d="M75.6593 16.4788C75.6593 21.1564 79.4888 24.9485 84.2117 24.9485C88.9368 24.9485 92.7663 21.1564 92.7663 16.4788C92.7663 11.8011 88.9368 8.00991 84.2117 8.00991C79.4888 8.00991 75.6593 11.8011 75.6593 16.4788Z" fill="white"/>
<path d="M75.0723 16.5963C75.0723 21.2734 78.9016 25.0665 83.6249 25.0665C88.3486 25.0665 92.1789 21.2736 92.1789 16.5963C92.1789 11.9181 88.3487 8.12797 83.6249 8.12797C78.9016 8.12797 75.0723 11.9181 75.0723 16.5963Z" fill="#F7F8F8"/>
<path d="M76.7928 15.4948C76.7928 19.068 79.7179 21.9631 83.3264 21.9631C86.9337 21.9631 89.858 19.068 89.858 15.4948C89.858 11.9214 86.9337 9.02543 83.3264 9.02543C79.7179 9.02543 76.7928 11.9216 76.7928 15.4948Z" fill="url(#paint13_radial_85_114)"/>
<path d="M76.9259 15.7444C76.9259 18.4813 79.165 20.6999 81.9294 20.6999C84.6926 20.6999 86.9341 18.4813 86.9341 15.7444C86.9341 13.0081 84.6926 10.7898 81.9294 10.7898C79.165 10.7899 76.9259 13.0082 76.9259 15.7444Z" fill="white"/>
<path d="M76.6203 15.9017C76.6203 18.6384 78.8609 20.8577 81.6244 20.8577C84.389 20.8577 86.6288 18.6384 86.6288 15.9017C86.6288 13.1659 84.389 10.9476 81.6244 10.9476C78.8609 10.9476 76.6203 13.166 76.6203 15.9017Z" fill="#F7F8F8"/>
<path d="M93.7042 23.879C93.7042 27.4841 96.6546 30.4053 100.293 30.4053C103.933 30.4053 106.884 27.4841 106.884 23.879C106.884 20.2744 103.933 17.3541 100.293 17.3541C96.6544 17.3539 93.7042 20.2744 93.7042 23.879Z" fill="white"/>
<path d="M93.1495 23.879C93.1495 27.4841 96.1009 30.4053 99.7392 30.4053C103.38 30.4053 106.33 27.4841 106.33 23.879C106.33 20.2744 103.38 17.3541 99.7392 17.3541C96.1007 17.3539 93.1495 20.2744 93.1495 23.879Z" fill="#F7F8F8"/>
</g>
<defs>
<filter id="filter0_d_85_114" x="0" y="0" width="162.227" height="85.3846" filterUnits="userSpaceOnUse" color-interpolation-filters="sRGB">
<feFlood flood-opacity="0" result="BackgroundImageFix"/>
<feColorMatrix in="SourceAlpha" type="matrix" values="0 0 0 0 0 0 0 0 0 0 0 0 0 0 0 0 0 0 127 0" result="hardAlpha"/>
<feOffset dy="14"/>
<feGaussianBlur stdDeviation="8"/>
<feComposite in2="hardAlpha" operator="out"/>
<feColorMatrix type="matrix" values="0 0 0 0 0 0 0 0 0 0 0 0 0 0 0 0 0 0 0.25 0"/>
<feBlend mode="normal" in2="BackgroundImageFix" result="effect1_dropShadow_85_114"/>
<feBlend mode="normal" in="SourceGraphic" in2="effect1_dropShadow_85_114" result="shape"/>
</filter>
<radialGradient id="paint0_radial_85_114" cx="0" cy="0" r="1" gradientUnits="userSpaceOnUse" gradientTransform="translate(93.7037 42.2054) rotate(180) scale(10.3332 10.2322)">
<stop offset="0.209" stop-color="#666666"/>
<stop offset="0.9801" stop-color="white"/>
</radialGradient>
<radialGradient id="paint1_radial_85_114" cx="0" cy="0" r="1" gradientUnits="userSpaceOnUse" gradientTransform="translate(70.7468 34.1921) rotate(180) scale(13.4659 13.3343)">
<stop offset="0.209" stop-color="#666666"/>
<stop offset="0.9801" stop-color="white"/>
</radialGradient>
<radialGradient id="paint2_radial_85_114" cx="0" cy="0" r="1" gradientUnits="userSpaceOnUse" gradientTransform="translate(83.3708 22.7872) rotate(180) scale(15.5072 15.3556)">
<stop offset="0.209" stop-color="#666666"/>
<stop offset="0.9801" stop-color="white"/>
</radialGradient>
<radialGradient id="paint3_radial_85_114" cx="0" cy="0" r="1" gradientUnits="userSpaceOnUse" gradientTransform="translate(102.175 28.6765) rotate(180) scale(12.3171 12.1968)">
<stop offset="0.209" stop-color="#666666"/>
<stop offset="0.9801" stop-color="white"/>
</radialGradient>
<radialGradient id="paint4_radial_85_114" cx="0" cy="0" r="1" gradientUnits="userSpaceOnUse" gradientTransform="translate(85.8347 16.8302) rotate(180) scale(10.3901 10.2885)">
<stop offset="0.209" stop-color="#666666"/>
<stop offset="0.9801" stop-color="white"/>
</radialGradient>
<radialGradient id="paint5_radial_85_114" cx="0" cy="0" r="1" gradientUnits="userSpaceOnUse" gradientTransform="translate(73.6402 29.8175) rotate(180) scale(7.55868 7.4848)">
<stop offset="0.209" stop-color="#666666"/>
<stop offset="0.9801" stop-color="white"/>
</radialGradient>
<radialGradient id="paint6_radial_85_114" cx="0" cy="0" r="1" gradientUnits="userSpaceOnUse" gradientTransform="translate(58.2818 37.5649) rotate(180) scale(9.48722 9.3945)">
<stop offset="0.209" stop-color="#666666"/>
<stop offset="0.9801" stop-color="white"/>
</radialGradient>
<radialGradient id="paint7_radial_85_114" cx="0" cy="0" r="1" gradientUnits="userSpaceOnUse" gradientTransform="translate(113.971 36.2121) rotate(180) scale(9.22694 9.13676)">
<stop offset="0.209" stop-color="#666666"/>
<stop offset="0.9801" stop-color="white"/>
</radialGradient>
<radialGradient id="paint8_radial_85_114" cx="0" cy="0" r="1" gradientUnits="userSpaceOnUse" gradientTransform="translate(101.625 25.9486) rotate(180) scale(7.82086 7.74442)">
<stop offset="0.209" stop-color="#666666"/>
<stop offset="0.9801" stop-color="white"/>
</radialGradient>
<radialGradient id="paint9_radial_85_114" cx="0" cy="0" r="1" gradientUnits="userSpaceOnUse" gradientTransform="translate(55.6616 35.4746) rotate(180) scale(5.64193 5.58679)">
<stop offset="0.209" stop-color="#666666"/>
<stop offset="0.9801" stop-color="white"/>
</radialGradient>
<radialGradient id="paint10_radial_85_114" cx="0" cy="0" r="1" gradientUnits="userSpaceOnUse" gradientTransform="translate(91.1239 38.8599) rotate(180) scale(6.34814 6.28608)">
<stop offset="0.209" stop-color="#666666"/>
<stop offset="0.9801" stop-color="white"/>
</radialGradient>
<radialGradient id="paint11_radial_85_114" cx="0" cy="0" r="1" gradientUnits="userSpaceOnUse" gradientTransform="translate(70.1043 28.1701) rotate(180) scale(5.34014 5.28795)">
<stop offset="0.209" stop-color="#666666"/>
<stop offset="0.9801" stop-color="white"/>
</radialGradient>
<radialGradient id="paint12_radial_85_114" cx="0" cy="0" r="1" gradientUnits="userSpaceOnUse" gradientTransform="translate(116.29 40.1599) rotate(180) scale(5.64214 5.58699)">
<stop offset="0.209" stop-color="#666666"/>
<stop offset="0.9801" stop-color="white"/>
</radialGradient>
<radialGradient id="paint13_radial_85_114" cx="0" cy="0" r="1" gradientUnits="userSpaceOnUse" gradientTransform="translate(83.3254 15.4944) rotate(180) scale(6.53263 6.46878)">
<stop offset="0.209" stop-color="#666666"/>
<stop offset="0.9801" stop-color="white"/>
</radialGradient>
</defs>
</svg>
