<svg width="149" height="105" viewBox="0 0 149 105" fill="none" xmlns="http://www.w3.org/2000/svg">
<g filter="url(#filter0_d_85_63)">
<path d="M50.3582 2C61.1789 2 70.2691 9.33302 72.8398 19.2542C73.7051 19.0974 74.591 19.0037 75.5024 19.0037C83.5794 19.0037 90.1272 25.4882 90.1272 33.4851C90.1272 33.7336 90.1016 33.9761 90.0887 34.2204C90.9125 34.0759 91.7563 33.9867 92.6214 33.9867C97.5156 33.9867 101.832 36.4109 104.432 40.1088C104.441 40.1175 104.45 40.1254 104.458 40.1351C107.409 44.0954 110.77 50.4431 115.836 53.1086C119.156 54.8538 128.255 56.7367 131.372 57.9585C132.547 58.4185 132.651 58.9273 131.557 59.4109C131.131 59.5985 130.571 59.1791 129.612 59.2246C119.796 59.6969 114.332 57.9701 109.345 57.6546C105.96 57.4434 102.586 58.9708 100.764 59.9774C100.326 60.2761 99.8723 60.5528 99.4015 60.8007C99.3975 60.8042 99.3815 60.8146 99.3815 60.8146C99.3815 60.8125 99.3803 60.8113 99.3803 60.8113C97.3649 61.8742 95.0653 62.4823 92.6212 62.4823C84.6746 62.4823 78.2324 56.1028 78.2324 48.2341C78.2324 48.0532 78.2539 47.8791 78.2601 47.7001C77.3656 47.8706 76.4451 47.9662 75.5019 47.9662C71.1669 47.9662 67.2828 46.0876 64.6053 43.1189C60.672 46.1545 55.7296 47.9662 50.3577 47.9662C37.5398 47.9662 27.1479 37.6751 27.1479 24.9818C27.1486 12.2894 37.5403 2 50.3582 2Z" fill="white"/>
<path d="M18.4962 51.7985C18.4962 61.3219 26.295 69.0433 35.9112 69.0433C45.5295 69.0433 53.3256 61.3219 53.3256 51.7985C53.3256 42.2745 45.5292 34.5536 35.9112 34.5536C26.295 34.5536 18.4962 42.2747 18.4962 51.7985Z" fill="#F7F8F8"/>
<path d="M-7.9631 51.0981C-7.9631 59.9517 -0.715088 67.1308 8.22705 67.1308C17.1697 67.1308 24.4177 59.9517 24.4177 51.0981C24.4177 42.2446 17.1697 35.0658 8.22705 35.0658C-0.715326 35.0655 -7.9631 42.2446 -7.9631 51.0981Z" fill="#F7F8F8"/>
<path d="M12.9638 36.5033C12.9638 44.5007 19.5115 50.9842 27.5874 50.9842C35.6637 50.9842 42.2116 44.5009 42.2116 36.5033C42.2116 28.5059 35.6637 22.0208 27.5874 22.0208C19.5115 22.021 12.9638 28.5062 12.9638 36.5033Z" fill="#F7F8F8"/>
<path d="M26.4292 25.5498C26.4292 38.2433 36.8214 48.5341 49.6388 48.5341C62.4576 48.5341 72.8493 38.2433 72.8493 25.5498C72.8493 12.8576 62.4576 2.56728 49.6388 2.56728C36.8214 2.56728 26.4292 12.8576 26.4292 25.5498Z" fill="#F7F8F8"/>
<path d="M40.7179 52.264C40.0603 39.5872 49.9049 28.7828 62.7064 28.1316C75.5079 27.4805 86.4186 37.2292 87.0762 49.906C87.7338 62.5827 77.8893 73.3871 65.0878 74.0383C52.2863 74.6894 41.3755 64.9407 40.7179 52.264Z" fill="#F7F8F8"/>
<path d="M-0.57466 64.5511C-0.57466 64.5511 -6.93894 60.853 -10.8111 61.3653C-18.5741 62.3918 -22.7233 63.9504 -30.4502 63.9504C-42.7928 63.9504 -49.0541 63.3489 -37.0337 60.4779C-25.0122 57.6105 -18.9677 55.2004 -13.1723 49.8877C-7.37675 44.5735 -3.19433 38.3154 1.52932 36.5035C6.25273 34.6907 12.3423 61.9999 -0.57466 64.5511Z" fill="#F7F8F8"/>
<path d="M47.4629 56.2778C47.4629 63.907 53.708 70.0912 61.4134 70.0912C69.1183 70.0912 75.362 63.907 75.362 56.2778C75.362 48.6501 69.1181 42.4637 61.4134 42.4637C53.7082 42.4637 47.4629 48.6501 47.4629 56.2778Z" fill="url(#paint0_radial_85_63)"/>
<path d="M12.2415 45.4604C12.2415 55.4024 20.3807 63.4608 30.421 63.4608C40.4611 63.4608 48.5993 55.4024 48.5993 45.4604C48.5993 35.517 40.4611 27.4581 30.421 27.4581C20.3809 27.4579 12.2415 35.517 12.2415 45.4604Z" fill="url(#paint1_radial_85_63)"/>
<path d="M44.656 52.0383C44.656 59.1013 50.4387 64.8274 57.5713 64.8274C64.7066 64.8274 70.4905 59.1013 70.4905 52.0383C70.4905 44.974 64.7066 39.2483 57.5713 39.2483C50.4387 39.2483 44.656 44.974 44.656 52.0383Z" fill="white"/>
<path d="M44.0541 51.7615C44.0541 58.8254 49.8375 64.5509 56.9721 64.5509C64.1052 64.5509 69.8896 58.8254 69.8896 51.7615C69.8896 44.6972 64.1052 38.9724 56.9721 38.9724C49.8375 38.9724 44.0541 44.6972 44.0541 51.7615Z" fill="#F7F8F8"/>
<path d="M18.8887 41.7035C18.8887 50.7332 26.2817 58.0535 35.4005 58.0535C44.5211 58.0535 51.9131 50.7332 51.9131 41.7035C51.9131 32.6711 44.5211 25.3523 35.4005 25.3523C26.2817 25.3523 18.8887 32.6709 18.8887 41.7035Z" fill="white"/>
<path d="M19.3993 41.3317C19.3993 50.3608 26.7918 57.681 35.9111 57.681C45.0307 57.681 52.4242 50.3608 52.4242 41.3317C52.4242 32.2986 45.0307 24.981 35.9111 24.981C26.7918 24.981 19.3993 32.2986 19.3993 41.3317Z" fill="#F7F8F8"/>
<path d="M77.5156 48.8012C77.5156 56.6704 83.9561 63.0501 91.9037 63.0501C99.8501 63.0501 106.293 56.6702 106.293 48.8012C106.293 40.9344 99.8498 34.5538 91.9037 34.5538C83.9559 34.5535 77.5156 40.9344 77.5156 48.8012Z" fill="#F7F8F8"/>
<path d="M26.5288 30.0635C26.5288 41.5104 35.9018 50.7932 47.4639 50.7932C59.0261 50.7932 68.3975 41.5104 68.3975 30.0635C68.3975 18.6131 59.0264 9.33238 47.4639 9.33238C35.9018 9.33238 26.5288 18.6131 26.5288 30.0635Z" fill="url(#paint2_radial_85_63)"/>
<path d="M98.6633 61.3814C98.6633 61.3814 103.639 57.9103 108.627 58.2228C113.614 58.5368 119.077 60.2643 128.894 59.7934C138.71 59.3199 120.185 56.3413 115.119 53.6761C110.053 51.0111 106.691 44.6634 103.74 40.7023C100.789 36.7445 91.7884 52.7804 98.6633 61.3814Z" fill="#F7F8F8"/>
<path d="M32.6851 27.4859C32.6851 36.9569 40.438 44.6343 50.0011 44.6343C59.5647 44.6343 67.3174 36.9569 67.3174 27.4859C67.3174 18.0169 59.5647 10.3402 50.0011 10.3402C40.438 10.3402 32.6851 18.0169 32.6851 27.4859Z" fill="white"/>
<path d="M33.017 26.8697C33.017 36.3815 40.8034 44.0927 50.4086 44.0927C60.0147 44.0927 67.8001 36.3815 67.8001 26.8697C67.8001 17.3591 60.0144 9.64839 50.4086 9.64839C40.8034 9.64839 33.017 17.3591 33.017 26.8697Z" fill="#F7F8F8"/>
<path d="M56.2207 38.0133C56.2207 47.1057 63.6664 54.4792 72.8491 54.4792C82.0327 54.4792 89.4763 47.1057 89.4763 38.0133C89.4763 28.9199 82.0327 21.5474 72.8491 21.5474C63.6664 21.5476 56.2207 28.9199 56.2207 38.0133Z" fill="url(#paint3_radial_85_63)"/>
<path d="M36.7626 22.0213C36.7626 29.6925 43.0421 35.9104 50.7893 35.9104C58.536 35.9104 64.8164 29.6925 64.8164 22.0213C64.8164 14.3508 58.536 8.1317 50.7893 8.1317C43.0421 8.13146 36.7626 14.3508 36.7626 22.0213Z" fill="url(#paint4_radial_85_63)"/>
<path d="M60.1599 34.0529C60.1599 42.0496 66.7086 48.534 74.7844 48.534C82.8608 48.534 89.4078 42.0496 89.4078 34.0529C89.4078 26.0565 82.861 19.5708 74.7844 19.5708C66.7086 19.5708 60.1599 26.0567 60.1599 34.0529Z" fill="#F7F8F8"/>
<path d="M24.1225 39.5532C24.1225 45.1349 28.6918 49.6581 34.3274 49.6581C39.9627 49.6581 44.5313 45.1349 44.5313 39.5532C44.5313 33.973 39.9627 29.4492 34.3274 29.4492C28.6918 29.4492 24.1225 33.973 24.1225 39.5532Z" fill="url(#paint5_radial_85_63)"/>
<path d="M0.785107 50.0126C0.785107 57.0192 6.51929 62.6952 13.5929 62.6952C20.6673 62.6952 26.4008 57.0192 26.4008 50.0126C26.4008 43.009 20.6673 37.3304 13.5929 37.3304C6.51905 37.3304 0.785107 43.0088 0.785107 50.0126Z" fill="url(#paint6_radial_85_63)"/>
<path d="M76.3164 48.1836C76.3164 54.9996 81.8925 60.521 88.7729 60.521C95.6529 60.521 101.229 54.9996 101.229 48.1836C101.229 41.3738 95.6526 35.8515 88.7729 35.8515C81.8925 35.8515 76.3164 41.3738 76.3164 48.1836Z" fill="url(#paint7_radial_85_63)"/>
<path d="M61.5488 34.3317C61.5488 40.1047 66.2763 44.786 72.108 44.786C77.9398 44.786 82.6642 40.1047 82.6642 34.3317C82.6642 28.5578 77.9398 23.8753 72.108 23.8753C66.2763 23.8753 61.5488 28.5578 61.5488 34.3317Z" fill="url(#paint8_radial_85_63)"/>
<path d="M22.6333 37.5471C22.6333 42.713 26.8616 46.8997 32.0775 46.8997C37.2938 46.8997 41.5207 42.713 41.5207 37.5471C41.5207 32.3822 37.2938 28.1974 32.0775 28.1974C26.8616 28.1974 22.6333 32.3822 22.6333 37.5471Z" fill="white"/>
<path d="M21.3349 36.736C21.3349 42.2051 25.8118 46.6392 31.3363 46.6392C36.8596 46.6392 41.338 42.2051 41.338 36.736C41.338 31.2667 36.8596 26.8338 31.3363 26.8338C25.8118 26.8338 21.3349 31.2667 21.3349 36.736Z" fill="#F7F8F8"/>
<path d="M1.12547 46.8986C1.12547 52.7002 5.87588 57.4037 11.735 57.4037C17.5946 57.4037 22.3448 52.7002 22.3448 46.8986C22.3448 41.0972 17.5946 36.394 11.735 36.394C5.87588 36.394 1.12547 41.097 1.12547 46.8986Z" fill="white"/>
<path d="M0.608103 46.6386C0.608103 52.4792 5.38933 57.2149 11.2881 57.2149C17.1883 57.2149 21.9685 52.4795 21.9685 46.6386C21.9685 40.7979 17.1883 36.063 11.2881 36.063C5.38933 36.063 0.608103 40.7979 0.608103 46.6386Z" fill="#F7F8F8"/>
<path d="M78.5109 50.7329C78.5109 56.5736 83.2924 61.3092 89.1911 61.3092C95.0899 61.3092 99.873 56.5738 99.873 50.7329C99.873 44.8909 95.0901 40.1574 89.1911 40.1574C83.2921 40.1574 78.5109 44.8909 78.5109 50.7329Z" fill="white"/>
<path d="M78.7958 51.0966C78.7958 56.9372 83.5773 61.6746 89.4758 61.6746C95.3753 61.6746 100.158 56.9375 100.158 51.0966C100.158 45.2555 95.3755 40.522 89.4758 40.522C83.577 40.522 78.7958 45.2553 78.7958 51.0966Z" fill="#F7F8F8"/>
<path d="M2.43868 47.1911C2.43868 51.356 5.84916 54.7327 10.0552 54.7327C14.263 54.7327 17.6725 51.3563 17.6725 47.1911C17.6725 43.0252 14.2632 39.6485 10.0552 39.6485C5.8494 39.6485 2.43868 43.0252 2.43868 47.1911Z" fill="url(#paint9_radial_85_63)"/>
<path d="M49.3598 51.7618C49.3598 56.4487 53.1966 60.2471 57.9298 60.2471C62.6632 60.2471 66.4998 56.4487 66.4998 51.7618C66.4998 47.076 62.6635 43.2746 57.9298 43.2746C53.1966 43.2746 49.3598 47.076 49.3598 51.7618Z" fill="url(#paint10_radial_85_63)"/>
<path d="M1.4615 47.1908C1.4615 50.6827 4.32168 53.5152 7.84919 53.5152C11.3767 53.5152 14.2369 50.6824 14.2369 47.1908C14.2369 43.698 11.3767 40.8675 7.84919 40.8675C4.32168 40.8675 1.4615 43.698 1.4615 47.1908Z" fill="white"/>
<path d="M0.818592 47.1908C0.818592 50.6827 3.67874 53.5152 7.20506 53.5152C10.7326 53.5152 13.5927 50.6824 13.5927 47.1908C13.5927 43.698 10.7323 40.8675 7.20506 40.8675C3.67874 40.8675 0.818592 43.698 0.818592 47.1908Z" fill="#F7F8F8"/>
<path d="M46.5986 53.5189C46.5986 57.9698 50.2436 61.5799 54.7384 61.5799C59.2337 61.5799 62.879 57.9698 62.879 53.5189C62.879 49.0689 59.2337 45.4605 54.7384 45.4605C50.2436 45.4605 46.5986 49.0687 46.5986 53.5189Z" fill="white"/>
<path d="M46.0611 54.0313C46.0611 58.482 49.7076 62.0916 54.2024 62.0916C58.6977 62.0916 62.3427 58.482 62.3427 54.0313C62.3427 49.5809 58.6977 45.9734 54.2024 45.9734C49.7076 45.9732 46.0611 49.5809 46.0611 54.0313Z" fill="#F7F8F8"/>
<path d="M22.344 37.3311C22.344 41.2728 25.5728 44.4685 29.5524 44.4685C33.5344 44.4685 36.7627 41.2728 36.7627 37.3311C36.7627 33.3858 33.5344 30.191 29.5524 30.191C25.5728 30.1908 22.344 33.3858 22.344 37.3311Z" fill="url(#paint11_radial_85_63)"/>
<path d="M23.4852 38.6356C23.4852 41.8929 26.1526 44.5347 29.4422 44.5347C32.7328 44.5347 35.4017 41.8929 35.4017 38.6356C35.4017 35.3779 32.7328 32.7368 29.4422 32.7368C26.1526 32.7368 23.4852 35.3779 23.4852 38.6356Z" fill="white"/>
<path d="M23.4852 39.2484C23.4852 42.5058 26.1526 45.1481 29.4422 45.1481C32.7328 45.1481 35.4017 42.5058 35.4017 39.2484C35.4017 35.99 32.7328 33.3496 29.4422 33.3496C26.1526 33.3493 23.4852 35.99 23.4852 39.2484Z" fill="#F7F8F8"/>
<path d="M84.2876 53.5154C84.2876 57.681 87.6967 61.0584 91.9037 61.0584C96.111 61.0584 99.5215 57.6813 99.5215 53.5154C99.5215 49.3502 96.1112 45.9732 91.9037 45.9732C87.6967 45.9732 84.2876 49.3502 84.2876 53.5154Z" fill="url(#paint12_radial_85_63)"/>
<path d="M86.5972 52.4422C86.5972 55.9353 89.4565 58.7666 92.984 58.7666C96.5112 58.7666 99.3712 55.9353 99.3712 52.4422C99.3712 48.9492 96.511 46.1175 92.984 46.1175C89.4565 46.1175 86.5972 48.9492 86.5972 52.4422Z" fill="white"/>
<path d="M87.0977 52.3003C87.0977 55.7926 89.9581 58.6251 93.4861 58.6251C97.0129 58.6251 99.8728 55.7924 99.8728 52.3003C99.8728 48.8073 97.0127 45.976 93.4861 45.976C89.9579 45.976 87.0977 48.8073 87.0977 52.3003Z" fill="#F7F8F8"/>
<path d="M37.0526 21.5463C37.0526 27.8612 42.2224 32.9804 48.5984 32.9804C54.9772 32.9804 60.147 27.8612 60.147 21.5463C60.147 15.2315 54.9772 10.1134 48.5984 10.1134C42.2224 10.1134 37.0526 15.2315 37.0526 21.5463Z" fill="white"/>
<path d="M36.2601 21.705C36.2601 28.0191 41.4297 33.1398 47.8062 33.1398C54.1831 33.1398 59.3541 28.0193 59.3541 21.705C59.3541 15.3894 54.1833 10.2727 47.8062 10.2727C41.4297 10.2727 36.2601 15.3894 36.2601 21.705Z" fill="#F7F8F8"/>
<path d="M38.5829 20.2179C38.5829 25.0418 42.5317 28.9501 47.4032 28.9501C52.273 28.9501 56.2209 25.0418 56.2209 20.2179C56.2209 15.3938 52.273 11.4842 47.4032 11.4842C42.5317 11.4842 38.5829 15.394 38.5829 20.2179Z" fill="url(#paint13_radial_85_63)"/>
<path d="M38.7625 20.5549C38.7625 24.2497 41.7853 27.2448 45.5173 27.2448C49.2476 27.2448 52.2735 24.2497 52.2735 20.5549C52.2735 16.8608 49.2476 13.8661 45.5173 13.8661C41.7853 13.8664 38.7625 16.8611 38.7625 20.5549Z" fill="white"/>
<path d="M38.35 20.7673C38.35 24.4618 41.3747 27.4579 45.1055 27.4579C48.8377 27.4579 51.8615 24.4618 51.8615 20.7673C51.8615 17.0739 48.8377 14.0792 45.1055 14.0792C41.3747 14.0792 38.35 17.0742 38.35 20.7673Z" fill="#F7F8F8"/>
<path d="M61.4132 31.5364C61.4132 36.4033 65.3962 40.3469 70.3078 40.3469C75.2223 40.3469 79.2055 36.4033 79.2055 31.5364C79.2055 26.6702 75.2223 22.7278 70.3078 22.7278C65.3959 22.7276 61.4132 26.6702 61.4132 31.5364Z" fill="white"/>
<path d="M60.6644 31.5364C60.6644 36.4033 64.6488 40.3469 69.5604 40.3469C74.4754 40.3469 78.4579 36.4033 78.4579 31.5364C78.4579 26.6702 74.4754 22.7278 69.5604 22.7278C64.6486 22.7276 60.6644 26.6702 60.6644 31.5364Z" fill="#F7F8F8"/>
</g>
<defs>
<filter id="filter0_d_85_63" x="-59.4875" y="0" width="207.807" height="104.069" filterUnits="userSpaceOnUse" color-interpolation-filters="sRGB">
<feFlood flood-opacity="0" result="BackgroundImageFix"/>
<feColorMatrix in="SourceAlpha" type="matrix" values="0 0 0 0 0 0 0 0 0 0 0 0 0 0 0 0 0 0 127 0" result="hardAlpha"/>
<feOffset dy="14"/>
<feGaussianBlur stdDeviation="8"/>
<feComposite in2="hardAlpha" operator="out"/>
<feColorMatrix type="matrix" values="0 0 0 0 0 0 0 0 0 0 0 0 0 0 0 0 0 0 0.25 0"/>
<feBlend mode="normal" in2="BackgroundImageFix" result="effect1_dropShadow_85_63"/>
<feBlend mode="normal" in="SourceGraphic" in2="effect1_dropShadow_85_63" result="shape"/>
</filter>
<radialGradient id="paint0_radial_85_63" cx="0" cy="0" r="1" gradientUnits="userSpaceOnUse" gradientTransform="translate(61.4126 56.2774) rotate(180) scale(13.9499 13.8135)">
<stop offset="0.209" stop-color="#666666"/>
<stop offset="0.9801" stop-color="white"/>
</radialGradient>
<radialGradient id="paint1_radial_85_63" cx="0" cy="0" r="1" gradientUnits="userSpaceOnUse" gradientTransform="translate(30.4206 45.4594) rotate(180) scale(18.179 18.0013)">
<stop offset="0.209" stop-color="#666666"/>
<stop offset="0.9801" stop-color="white"/>
</radialGradient>
<radialGradient id="paint2_radial_85_63" cx="0" cy="0" r="1" gradientUnits="userSpaceOnUse" gradientTransform="translate(47.4631 30.0627) rotate(180) scale(20.9347 20.7301)">
<stop offset="0.209" stop-color="#666666"/>
<stop offset="0.9801" stop-color="white"/>
</radialGradient>
<radialGradient id="paint3_radial_85_63" cx="0" cy="0" r="1" gradientUnits="userSpaceOnUse" gradientTransform="translate(72.8487 38.0134) rotate(180) scale(16.6281 16.4656)">
<stop offset="0.209" stop-color="#666666"/>
<stop offset="0.9801" stop-color="white"/>
</radialGradient>
<radialGradient id="paint4_radial_85_63" cx="0" cy="0" r="1" gradientUnits="userSpaceOnUse" gradientTransform="translate(50.7893 22.0209) rotate(180) scale(14.0266 13.8895)">
<stop offset="0.209" stop-color="#666666"/>
<stop offset="0.9801" stop-color="white"/>
</radialGradient>
<radialGradient id="paint5_radial_85_63" cx="0" cy="0" r="1" gradientUnits="userSpaceOnUse" gradientTransform="translate(34.3268 39.5536) rotate(180) scale(10.2042 10.1045)">
<stop offset="0.209" stop-color="#666666"/>
<stop offset="0.9801" stop-color="white"/>
</radialGradient>
<radialGradient id="paint6_radial_85_63" cx="0" cy="0" r="1" gradientUnits="userSpaceOnUse" gradientTransform="translate(13.5929 50.0126) rotate(180) scale(12.8077 12.6826)">
<stop offset="0.209" stop-color="#666666"/>
<stop offset="0.9801" stop-color="white"/>
</radialGradient>
<radialGradient id="paint7_radial_85_63" cx="0" cy="0" r="1" gradientUnits="userSpaceOnUse" gradientTransform="translate(88.7728 48.1862) rotate(180) scale(12.4564 12.3346)">
<stop offset="0.209" stop-color="#666666"/>
<stop offset="0.9801" stop-color="white"/>
</radialGradient>
<radialGradient id="paint8_radial_85_63" cx="0" cy="0" r="1" gradientUnits="userSpaceOnUse" gradientTransform="translate(72.1066 34.3307) rotate(180) scale(10.5582 10.455)">
<stop offset="0.209" stop-color="#666666"/>
<stop offset="0.9801" stop-color="white"/>
</radialGradient>
<radialGradient id="paint9_radial_85_63" cx="0" cy="0" r="1" gradientUnits="userSpaceOnUse" gradientTransform="translate(10.0557 47.1906) rotate(180) scale(7.61661 7.54217)">
<stop offset="0.209" stop-color="#666666"/>
<stop offset="0.9801" stop-color="white"/>
</radialGradient>
<radialGradient id="paint10_radial_85_63" cx="0" cy="0" r="1" gradientUnits="userSpaceOnUse" gradientTransform="translate(57.9298 51.7608) rotate(180) scale(8.56999 8.48621)">
<stop offset="0.209" stop-color="#666666"/>
<stop offset="0.9801" stop-color="white"/>
</radialGradient>
<radialGradient id="paint11_radial_85_63" cx="0" cy="0" r="1" gradientUnits="userSpaceOnUse" gradientTransform="translate(29.5534 37.3295) rotate(180) scale(7.2092 7.13873)">
<stop offset="0.209" stop-color="#666666"/>
<stop offset="0.9801" stop-color="white"/>
</radialGradient>
<radialGradient id="paint12_radial_85_63" cx="0" cy="0" r="1" gradientUnits="userSpaceOnUse" gradientTransform="translate(91.9045 53.5158) rotate(180) scale(7.61689 7.54244)">
<stop offset="0.209" stop-color="#666666"/>
<stop offset="0.9801" stop-color="white"/>
</radialGradient>
<radialGradient id="paint13_radial_85_63" cx="0" cy="0" r="1" gradientUnits="userSpaceOnUse" gradientTransform="translate(47.4018 20.2173) rotate(180) scale(8.81906 8.73286)">
<stop offset="0.209" stop-color="#666666"/>
<stop offset="0.9801" stop-color="white"/>
</radialGradient>
</defs>
</svg>
