<svg width="253" height="108" viewBox="0 0 253 108" fill="none" xmlns="http://www.w3.org/2000/svg">
<g filter="url(#filter0_d_85_58)">
<path d="M89.5607 99.7784C89.5607 120.44 72.6447 137.189 51.7794 137.189C30.9147 137.189 14 120.44 14 99.7784C14 79.1164 30.9151 62.369 51.7794 62.369C72.645 62.3686 89.5607 79.1164 89.5607 99.7784Z" fill="#2B8FB6"/>
<path d="M211.043 87.8458C211.043 102.757 198.836 114.846 183.776 114.846C168.718 114.846 156.51 102.757 156.51 87.8458C156.51 72.9334 168.718 60.8465 183.776 60.8465C198.836 60.8465 211.043 72.9334 211.043 87.8458Z" fill="#2B8FB6"/>
<path d="M281.747 105.099C281.747 130.597 260.87 151.269 235.12 151.269C209.37 151.269 188.495 130.597 188.495 105.099C188.495 79.5997 209.37 58.9302 235.12 58.9302C260.87 58.9302 281.747 79.5997 281.747 105.099Z" fill="#2B8FB6"/>
<path d="M186.608 90.7622C186.608 124.32 159.133 151.526 125.243 151.526C91.3539 151.526 63.8799 124.32 63.8799 90.7622C63.8799 57.2023 91.3539 30 125.243 30C159.133 30 186.608 57.2023 186.608 90.7622Z" fill="#2B8FB6"/>
</g>
<defs>
<filter id="filter0_d_85_58" x="0" y="0" width="295.747" height="151.526" filterUnits="userSpaceOnUse" color-interpolation-filters="sRGB">
<feFlood flood-opacity="0" result="BackgroundImageFix"/>
<feColorMatrix in="SourceAlpha" type="matrix" values="0 0 0 0 0 0 0 0 0 0 0 0 0 0 0 0 0 0 127 0" result="hardAlpha"/>
<feOffset dy="-16"/>
<feGaussianBlur stdDeviation="7"/>
<feComposite in2="hardAlpha" operator="out"/>
<feColorMatrix type="matrix" values="0 0 0 0 0 0 0 0 0 0 0 0 0 0 0 0 0 0 0.25 0"/>
<feBlend mode="normal" in2="BackgroundImageFix" result="effect1_dropShadow_85_58"/>
<feBlend mode="normal" in="SourceGraphic" in2="effect1_dropShadow_85_58" result="shape"/>
</filter>
</defs>
</svg>
