<svg width="203" height="208" viewBox="0 0 203 208" fill="none" xmlns="http://www.w3.org/2000/svg">
<g>
<path d="M176.87 78.4873C176.87 133.219 132.064 177.588 76.7913 177.588C21.5213 177.588 -23.2826 133.219 -23.2826 78.4873C-23.2826 23.7569 21.5213 -20.6131 76.7913 -20.6131C132.064 -20.6131 176.87 23.7569 176.87 78.4873Z" fill="url(#paint0_linear_85_19)"/>
<path d="M175.129 78.4872C175.129 132.267 131.102 175.864 76.7915 175.864C22.4817 175.864 -21.5438 132.267 -21.5438 78.4872C-21.5438 24.7079 22.4817 -18.8892 76.7915 -18.8892C131.102 -18.8895 175.129 24.7079 175.129 78.4872Z" fill="url(#paint1_linear_85_19)"/>
<path d="M42.48 148.349C47.8546 143.267 44.6983 131.339 35.4327 121.705C26.168 112.073 14.3001 108.381 8.92668 113.464C3.55211 118.546 6.70776 130.472 15.9734 140.106C25.2384 149.739 37.108 153.428 42.48 148.349Z" fill="url(#paint2_linear_85_19)"/>
<path d="M41.6045 147.437C46.575 142.735 43.4889 131.523 34.7077 122.392C25.925 113.262 14.7747 109.673 9.80303 114.377C4.83053 119.075 7.91687 130.289 16.6981 139.418C25.4808 148.551 36.6311 152.138 41.6045 147.437Z" fill="url(#paint3_linear_85_19)"/>
<path d="M41.6045 147.437C46.575 142.735 43.4889 131.523 34.7077 122.392C25.925 113.262 14.7747 109.673 9.80303 114.377C4.83053 119.075 7.91687 130.289 16.6981 139.418C25.4808 148.551 36.6311 152.138 41.6045 147.437Z" fill="url(#paint4_radial_85_19)"/>
<path d="M132.108 55.2329C138.25 49.4341 135.712 36.928 126.439 27.299C117.169 17.6726 104.675 14.5678 98.5348 20.3675C92.3911 26.1672 94.9309 38.671 104.202 48.2989C113.472 57.9279 125.969 61.0309 132.108 55.2329Z" fill="url(#paint5_linear_85_19)"/>
<path d="M131.232 54.3218C136.913 48.9563 134.398 37.2099 125.612 28.0826C116.824 18.9584 105.094 15.9125 99.4121 21.2798C93.7285 26.643 96.244 38.3917 105.03 47.5159C113.818 56.6435 125.549 59.6873 131.232 54.3218Z" fill="url(#paint6_linear_85_19)"/>
<path d="M131.232 54.3218C136.913 48.9563 134.398 37.2099 125.612 28.0826C116.824 18.9584 105.094 15.9125 99.4121 21.2798C93.7285 26.643 96.244 38.3917 105.03 47.5159C113.818 56.6435 125.549 59.6873 131.232 54.3218Z" fill="url(#paint7_radial_85_19)"/>
<path d="M158.302 63.9787C162.843 62.1845 164.198 54.9624 161.332 47.8447C158.464 40.7287 152.459 36.4129 147.921 38.2062C143.38 40.0005 142.026 47.222 144.892 54.3388C147.76 61.4563 153.764 65.7715 158.302 63.9787Z" fill="url(#paint8_linear_85_19)"/>
<path d="M158.032 63.3048C162.231 61.6451 163.434 54.8334 160.718 48.0875C158 41.3425 152.392 37.2201 148.192 38.8807C143.992 40.5374 142.788 47.3513 145.505 54.0963C148.222 60.8433 153.831 64.9638 158.032 63.3048Z" fill="url(#paint9_linear_85_19)"/>
<path d="M158.032 63.3048C162.231 61.6451 163.434 54.8334 160.718 48.0875C158 41.3425 152.392 37.2201 148.192 38.8807C143.992 40.5374 142.788 47.3513 145.505 54.0963C148.222 60.8433 153.831 64.9638 158.032 63.3048Z" fill="url(#paint10_radial_85_19)"/>
<path d="M110.405 5.29636C111.931 0.698526 107.21 -4.96846 99.8594 -7.36277C92.5103 -9.75478 85.3122 -7.96771 83.7865 -3.37102C82.2594 1.22824 86.9815 6.89351 94.3318 9.28725C101.682 11.681 108.88 9.89247 110.405 5.29636Z" fill="url(#paint11_linear_85_19)"/>
<path d="M109.71 5.06953C111.121 0.815218 106.621 -4.4725 99.6543 -6.74153C92.6862 -9.0097 85.8951 -7.39852 84.4838 -3.14421C83.0696 1.10925 87.5713 6.39783 94.5383 8.666C101.504 10.935 108.297 9.32299 109.71 5.06953Z" fill="url(#paint12_linear_85_19)"/>
<path d="M109.71 5.06953C111.121 0.815218 106.621 -4.4725 99.6543 -6.74153C92.6862 -9.0097 85.8951 -7.39852 84.4838 -3.14421C83.0696 1.10925 87.5713 6.39783 94.5383 8.666C101.504 10.935 108.297 9.32299 109.71 5.06953Z" fill="url(#paint13_radial_85_19)"/>
<path d="M137.302 16.8465C139.157 13.5619 136.404 8.53813 131.151 5.62755C125.9 2.71869 120.136 3.02331 118.281 6.30715C116.424 9.59442 119.178 14.615 124.43 17.5253C129.683 20.4359 135.446 20.1312 137.302 16.8465Z" fill="url(#paint14_linear_85_19)"/>
<path d="M136.806 16.5703C138.522 13.5304 135.88 8.83132 130.901 6.07148C125.923 3.31421 120.495 3.5436 118.779 6.58432C117.06 9.62361 119.702 14.3233 124.681 17.0814C129.658 19.8404 135.087 19.6101 136.806 16.5703Z" fill="url(#paint15_linear_85_19)"/>
<path d="M136.806 16.5703C138.522 13.5304 135.88 8.83132 130.901 6.07148C125.923 3.31421 120.495 3.5436 118.779 6.58432C117.06 9.62361 119.702 14.3233 124.681 17.0814C129.658 19.8404 135.087 19.6101 136.806 16.5703Z" fill="url(#paint16_radial_85_19)"/>
<path d="M2.934 103.562C6.96486 102.444 8.58299 95.6847 6.54922 88.4658C4.51661 81.25 -0.399867 76.304 -4.4287 77.4235C-8.45985 78.5422 -10.0771 85.2995 -8.04391 92.5184C-6.01158 99.736 -1.09426 104.681 2.934 103.562Z" fill="url(#paint17_linear_85_19)"/>
<path d="M2.7423 102.879C6.47073 101.843 7.93229 95.4603 6.00482 88.6181C4.07821 81.7767 -0.507817 77.071 -4.23712 78.1062C-7.96555 79.1407 -9.42654 85.5253 -7.50022 92.3659C-5.57303 99.2084 -0.98614 103.914 2.7423 102.879Z" fill="url(#paint18_linear_85_19)"/>
<path d="M2.7423 102.879C6.47073 101.843 7.93229 95.4603 6.00482 88.6181C4.07821 81.7767 -0.507817 77.071 -4.23712 78.1062C-7.96555 79.1407 -9.42654 85.5253 -7.50022 92.3659C-5.57303 99.2084 -0.98614 103.914 2.7423 102.879Z" fill="url(#paint19_radial_85_19)"/>
</g>
<defs>
<linearGradient id="paint0_linear_85_19" x1="2.69993" y1="7.94732" x2="148.2" y2="149.218" gradientUnits="userSpaceOnUse">
<stop stop-color="#FFFEEE"/>
<stop offset="1" stop-color="#DAAC73"/>
</linearGradient>
<linearGradient id="paint1_linear_85_19" x1="-1.42593" y1="21.8494" x2="151.343" y2="134.664" gradientUnits="userSpaceOnUse">
<stop stop-color="#FFF5D7"/>
<stop offset="1" stop-color="#ECCA90"/>
</linearGradient>
<linearGradient id="paint2_linear_85_19" x1="4.49148" y1="127.621" x2="46.3229" y2="135.221" gradientUnits="userSpaceOnUse">
<stop stop-color="#ECCA90"/>
<stop offset="1" stop-color="#FFF5D7"/>
</linearGradient>
<linearGradient id="paint3_linear_85_19" x1="-5.37721" y1="132.64" x2="48.0272" y2="129.602" gradientUnits="userSpaceOnUse">
<stop stop-color="#FFF5D7"/>
<stop offset="1" stop-color="#ECCA90"/>
</linearGradient>
<radialGradient id="paint4_radial_85_19" cx="0" cy="0" r="1" gradientTransform="matrix(17.3747 18.0634 9.83968 -9.3048 27.449 131.353)" gradientUnits="userSpaceOnUse">
<stop offset="0.7818" stop-color="white"/>
<stop offset="0.8144" stop-color="#FDFCF9"/>
<stop offset="0.8608" stop-color="#F4EEE4"/>
<stop offset="0.9154" stop-color="#E5D7C1"/>
<stop offset="0.9758" stop-color="#D1B893"/>
<stop offset="1" stop-color="#C8AB80"/>
</radialGradient>
<linearGradient id="paint5_linear_85_19" x1="92.7518" y1="35.7854" x2="135.825" y2="46.4356" gradientUnits="userSpaceOnUse">
<stop stop-color="#ECCA90"/>
<stop offset="1" stop-color="#FFF5D7"/>
</linearGradient>
<linearGradient id="paint6_linear_85_19" x1="81.7831" y1="41.8345" x2="139.34" y2="42.4018" gradientUnits="userSpaceOnUse">
<stop stop-color="#FFF5D7"/>
<stop offset="1" stop-color="#ECCA90"/>
</linearGradient>
<radialGradient id="paint7_radial_85_19" cx="0" cy="0" r="1" gradientTransform="matrix(17.387 18.0523 11.2456 -10.6187 115.837 38.9437)" gradientUnits="userSpaceOnUse">
<stop offset="0.7818" stop-color="white"/>
<stop offset="0.8144" stop-color="#FDFCF9"/>
<stop offset="0.8608" stop-color="#F4EEE4"/>
<stop offset="0.9154" stop-color="#E5D7C1"/>
<stop offset="0.9758" stop-color="#D1B893"/>
<stop offset="1" stop-color="#C8AB80"/>
</radialGradient>
<linearGradient id="paint8_linear_85_19" x1="141.488" y1="45.2158" x2="162.127" y2="60.1631" gradientUnits="userSpaceOnUse">
<stop stop-color="#ECCA90"/>
<stop offset="1" stop-color="#FFF5D7"/>
</linearGradient>
<linearGradient id="paint9_linear_85_19" x1="134.314" y1="46.1169" x2="164.864" y2="58.8639" gradientUnits="userSpaceOnUse">
<stop stop-color="#FFF5D7"/>
<stop offset="1" stop-color="#ECCA90"/>
</linearGradient>
<radialGradient id="paint10_radial_85_19" cx="0" cy="0" r="1" gradientTransform="matrix(5.37632 13.3444 8.31287 -3.28234 153.139 51.8134)" gradientUnits="userSpaceOnUse">
<stop offset="0.7818" stop-color="white"/>
<stop offset="0.8144" stop-color="#FDFCF9"/>
<stop offset="0.8608" stop-color="#F4EEE4"/>
<stop offset="0.9154" stop-color="#E5D7C1"/>
<stop offset="0.9758" stop-color="#D1B893"/>
<stop offset="1" stop-color="#C8AB80"/>
</radialGradient>
<linearGradient id="paint11_linear_85_19" x1="85.0824" y1="6.01375" x2="109.817" y2="-0.401306" gradientUnits="userSpaceOnUse">
<stop stop-color="#ECCA90"/>
<stop offset="1" stop-color="#FFF5D7"/>
</linearGradient>
<linearGradient id="paint12_linear_85_19" x1="81.1734" y1="12.0377" x2="110.428" y2="-3.40719" gradientUnits="userSpaceOnUse">
<stop stop-color="#FFF5D7"/>
<stop offset="1" stop-color="#ECCA90"/>
</linearGradient>
<radialGradient id="paint13_radial_85_19" cx="0" cy="0" r="1" gradientTransform="matrix(13.7831 4.48688 2.79564 -8.4189 97.6719 1.40447)" gradientUnits="userSpaceOnUse">
<stop offset="0.7818" stop-color="white"/>
<stop offset="0.8144" stop-color="#FDFCF9"/>
<stop offset="0.8608" stop-color="#F4EEE4"/>
<stop offset="0.9154" stop-color="#E5D7C1"/>
<stop offset="0.9758" stop-color="#D1B893"/>
<stop offset="1" stop-color="#C8AB80"/>
</radialGradient>
<linearGradient id="paint14_linear_85_19" x1="117.86" y1="13.664" x2="137.713" y2="12.4802" gradientUnits="userSpaceOnUse">
<stop stop-color="#ECCA90"/>
<stop offset="1" stop-color="#FFF5D7"/>
</linearGradient>
<linearGradient id="paint15_linear_85_19" x1="113.97" y1="17.6874" x2="138.646" y2="10.2706" gradientUnits="userSpaceOnUse">
<stop stop-color="#FFF5D7"/>
<stop offset="1" stop-color="#ECCA90"/>
</linearGradient>
<radialGradient id="paint16_radial_85_19" cx="0" cy="0" r="1" gradientTransform="matrix(9.84961 5.4568 3.39917 -6.01554 128.165 11.9992)" gradientUnits="userSpaceOnUse">
<stop offset="0.7818" stop-color="white"/>
<stop offset="0.8144" stop-color="#FDFCF9"/>
<stop offset="0.8608" stop-color="#F4EEE4"/>
<stop offset="0.9154" stop-color="#E5D7C1"/>
<stop offset="0.9758" stop-color="#D1B893"/>
<stop offset="1" stop-color="#C8AB80"/>
</radialGradient>
<linearGradient id="paint17_linear_85_19" x1="-10.4174" y1="83.3016" x2="8.26289" y2="98.1545" gradientUnits="userSpaceOnUse">
<stop stop-color="#ECCA90"/>
<stop offset="1" stop-color="#FFF5D7"/>
</linearGradient>
<linearGradient id="paint18_linear_85_19" x1="-16.6659" y1="83.2114" x2="10.5931" y2="95.927" gradientUnits="userSpaceOnUse">
<stop stop-color="#FFF5D7"/>
<stop offset="1" stop-color="#ECCA90"/>
</linearGradient>
<radialGradient id="paint19_radial_85_19" cx="0" cy="0" r="1" gradientTransform="matrix(3.81381 13.5345 7.37956 -2.04839 0.000925363 91.1721)" gradientUnits="userSpaceOnUse">
<stop offset="0.7818" stop-color="white"/>
<stop offset="0.8144" stop-color="#FDFCF9"/>
<stop offset="0.8608" stop-color="#F4EEE4"/>
<stop offset="0.9154" stop-color="#E5D7C1"/>
<stop offset="0.9758" stop-color="#D1B893"/>
<stop offset="1" stop-color="#C8AB80"/>
</radialGradient>
</defs>
</svg>
