<svg width="21" height="10" viewBox="0 0 21 10" fill="none" xmlns="http://www.w3.org/2000/svg">
<path d="M7.447 5.96199C7.78434 5.16266 8.041 4.27533 8.217 3.29999L6.534 3.39899L6.49 3.49799C6.76134 4.45133 7.08034 5.27266 7.447 5.96199ZM3.432 3.02499C3.48334 2.71699 3.51634 2.49333 3.531 2.35399C3.54567 2.21466 3.564 2.03499 3.586 1.81499C3.62267 1.58033 3.64834 1.23933 3.663 0.791993C3.663 0.645326 3.63 0.516993 3.564 0.406993C3.53467 0.370326 3.52 0.33366 3.52 0.296993C3.52 0.238326 3.56034 0.208993 3.641 0.208993C3.76567 0.208993 3.927 0.252993 4.125 0.340992C4.33034 0.421659 4.433 0.50966 4.433 0.604993V0.637993C4.37434 0.931326 4.301 1.25766 4.213 1.61699L4.983 1.57299C5.12234 1.56566 5.27634 1.52899 5.445 1.46299C5.489 1.44099 5.533 1.42999 5.577 1.42999C5.687 1.42999 5.80434 1.49233 5.929 1.61699C6.061 1.73433 6.127 1.83699 6.127 1.92499C6.127 1.97633 6.10134 2.01666 6.05 2.04599C6.006 2.07533 5.94734 2.09366 5.874 2.10099L4.048 2.21099C3.93067 2.61433 3.83534 2.90766 3.762 3.09099C3.68867 3.26699 3.61167 3.35499 3.531 3.35499C3.45767 3.35499 3.421 3.28533 3.421 3.14599C3.421 3.09466 3.42467 3.05433 3.432 3.02499ZM1.705 7.17199L2.629 7.11699L2.783 5.75299L1.628 5.84099L1.705 7.17199ZM0.187003 5.41199C0.546337 4.97933 0.85067 4.55766 1.1 4.14699C1.35667 3.72899 1.485 3.42466 1.485 3.23399L1.474 3.12399V3.09099C1.474 3.01766 1.50334 2.98099 1.562 2.98099C1.606 2.98099 1.683 3.00666 1.793 3.05799C1.91034 3.10933 2.013 3.17166 2.101 3.24499C2.19634 3.31833 2.244 3.39533 2.244 3.47599C2.244 3.52733 2.2 3.61533 2.112 3.73999C2.024 3.86466 1.97634 3.93433 1.969 3.94899L4.389 3.79499H4.455C4.55034 3.79499 4.64934 3.83166 4.752 3.90499C4.85467 3.97099 4.906 4.04799 4.906 4.13599C4.906 4.16533 4.895 4.20933 4.873 4.26799C4.85834 4.31933 4.851 4.35599 4.851 4.37799C4.79967 5.79333 4.73 6.88599 4.642 7.65599C4.56134 8.42599 4.47334 8.94666 4.378 9.21799C4.29 9.48933 4.191 9.67266 4.081 9.76799C3.97834 9.86333 3.872 9.91099 3.762 9.91099C3.652 9.91099 3.45767 9.83399 3.179 9.67999C2.90767 9.52599 2.65467 9.35366 2.42 9.16299C2.19267 8.97966 2.079 8.84399 2.079 8.75599C2.079 8.70466 2.112 8.67899 2.178 8.67899C2.222 8.67899 2.30634 8.70466 2.431 8.75599C2.85634 8.95399 3.22667 9.09699 3.542 9.18499H3.575C3.58967 9.18499 3.608 9.17033 3.63 9.14099C3.784 8.78166 3.905 8.12166 3.993 7.16099C4.08834 6.19299 4.15067 5.26899 4.18 4.38899L1.54 4.53199C1.32 4.78866 1.12567 4.99766 0.957003 5.15899C1.05234 5.15899 1.276 5.20666 1.628 5.30199L2.893 5.20299C2.92234 5.19566 2.96267 5.19199 3.014 5.19199C3.146 5.19199 3.25234 5.23966 3.333 5.33499C3.41367 5.42299 3.454 5.49633 3.454 5.55499C3.454 5.58433 3.44667 5.62099 3.432 5.66499C3.41734 5.70166 3.40634 5.73099 3.399 5.75299L3.168 7.11699C3.33667 7.28566 3.421 7.41766 3.421 7.51299C3.421 7.55699 3.399 7.58999 3.355 7.61199C3.311 7.62666 3.245 7.63766 3.157 7.64499L1.738 7.72199L1.76 8.01899V8.05199C1.76 8.17666 1.70867 8.23899 1.606 8.23899C1.518 8.23899 1.41167 8.20233 1.287 8.12899C1.16967 8.05566 1.111 7.95666 1.111 7.83199L1.122 7.73299C1.13667 7.54233 1.144 7.38833 1.144 7.27099V7.08399L1.067 5.79699C1.05234 5.64299 1.00467 5.49266 0.924003 5.34599C0.89467 5.28733 0.880003 5.25066 0.880003 5.23599C0.52067 5.56599 0.271337 5.73099 0.132003 5.73099C0.08067 5.73099 0.0550033 5.70899 0.0550033 5.66499C0.0550033 5.60633 0.0990033 5.52199 0.187003 5.41199ZM0.0660033 1.82599L0.121003 1.83699C0.231003 1.85899 0.330003 1.86999 0.418003 1.86999L0.627003 1.85899L2.09 1.78199L2.002 1.12199C1.99467 1.04133 1.97634 0.978993 1.947 0.934993C1.925 0.88366 1.88467 0.81766 1.826 0.736993C1.79667 0.707659 1.782 0.674659 1.782 0.637993C1.782 0.593993 1.826 0.571993 1.914 0.571993C2.03867 0.571993 2.18167 0.59766 2.343 0.648993C2.50434 0.700326 2.59234 0.788326 2.607 0.912993L2.838 2.91499V2.98099C2.838 3.10566 2.783 3.16799 2.673 3.16799C2.585 3.16799 2.475 3.13499 2.343 3.06899C2.21834 3.00299 2.156 2.93333 2.156 2.85999V2.82699L2.167 2.47499V2.34299L0.891003 2.40899C0.810337 2.41633 0.711337 2.41999 0.594003 2.41999C0.47667 2.41999 0.36667 2.39433 0.264003 2.34299C0.161337 2.28433 0.0770033 2.15233 0.0110033 1.94699C0.00367 1.93233 3.33786e-06 1.91399 3.33786e-06 1.89199C3.33786e-06 1.84799 0.0220033 1.82599 0.0660033 1.82599ZM7.821 6.63299C8.38567 7.54966 9.17034 8.43699 10.175 9.29499C10.2557 9.36099 10.296 9.41599 10.296 9.45999C10.296 9.51133 10.2153 9.58466 10.054 9.67999C9.9 9.77533 9.78267 9.82299 9.702 9.82299C9.62867 9.82299 9.45634 9.68733 9.185 9.41599C8.91367 9.14466 8.61667 8.81099 8.294 8.41499C7.97134 8.01166 7.69267 7.63033 7.458 7.27099C7.14267 7.76233 6.787 8.20966 6.391 8.61299C5.995 9.00899 5.632 9.32066 5.302 9.54799C4.97934 9.78266 4.75934 9.89999 4.642 9.89999C4.59067 9.89999 4.565 9.88166 4.565 9.84499C4.565 9.78633 4.631 9.69099 4.763 9.55899C5.797 8.58366 6.578 7.61566 7.106 6.65499C6.71734 5.95099 6.38 5.15899 6.094 4.27899C5.874 4.67499 5.632 5.03799 5.368 5.36799C5.22867 5.53666 5.12234 5.62099 5.049 5.62099C5.01234 5.62099 4.994 5.59533 4.994 5.54399C4.994 5.47066 5.03067 5.36433 5.104 5.22499C5.40467 4.61633 5.67234 3.97833 5.907 3.31099C6.149 2.64366 6.336 2.04966 6.468 1.52899C6.60734 1.00833 6.677 0.659992 6.677 0.483993L6.666 0.274993V0.252993C6.666 0.186993 6.70267 0.153993 6.776 0.153993C6.89334 0.153993 7.04 0.219993 7.216 0.351993C7.39934 0.476659 7.491 0.593993 7.491 0.703993C7.491 0.733326 7.414 0.978993 7.26 1.44099C7.11334 1.89566 6.952 2.35033 6.776 2.80499L8.668 2.68399C8.83667 2.67666 9.00534 2.63999 9.174 2.57399C9.23267 2.55933 9.273 2.55199 9.295 2.55199C9.41234 2.55199 9.537 2.61799 9.669 2.74999C9.80834 2.87466 9.878 2.97733 9.878 3.05799C9.878 3.15333 9.80834 3.20833 9.669 3.22299L8.965 3.26699C8.68634 4.59433 8.305 5.71633 7.821 6.63299ZM16.786 8.34899L16.808 8.23899C16.83 8.17299 16.863 8.10699 16.907 8.04099C16.951 7.96766 17.0097 7.93099 17.083 7.93099C17.105 7.93099 17.2333 7.98599 17.468 8.09599C17.71 8.19866 18.007 8.34533 18.359 8.53599C18.7183 8.71933 19.0813 8.93566 19.448 9.18499C19.5213 9.23633 19.5763 9.28033 19.613 9.31699C19.6497 9.35366 19.668 9.40133 19.668 9.45999C19.668 9.50399 19.6497 9.56633 19.613 9.64699C19.5837 9.73499 19.5397 9.81199 19.481 9.87799C19.4297 9.94399 19.3673 9.97699 19.294 9.97699C19.2353 9.97699 19.162 9.94033 19.074 9.86699C18.8027 9.64699 18.4873 9.43433 18.128 9.22899C17.776 9.02366 17.3947 8.81099 16.984 8.59099C16.852 8.52499 16.786 8.44433 16.786 8.34899ZM15.367 8.78899C14.6777 9.14833 14.1093 9.41233 13.662 9.58099C13.222 9.74966 12.892 9.85599 12.672 9.89999C12.4593 9.94399 12.342 9.96599 12.32 9.96599C12.2247 9.96599 12.177 9.94033 12.177 9.88899C12.177 9.82299 12.2467 9.75699 12.386 9.69099C12.5913 9.58833 12.8223 9.47099 13.079 9.33899C13.343 9.20699 13.596 9.06766 13.838 8.92099C14.0873 8.76699 14.3 8.61299 14.476 8.45899C14.652 8.29766 14.7547 8.14366 14.784 7.99699C14.7987 7.93833 14.8317 7.90899 14.883 7.90899C14.949 7.90899 15.026 7.95666 15.114 8.05199C15.2093 8.13999 15.29 8.24266 15.356 8.35999C15.4293 8.46999 15.466 8.56166 15.466 8.63499C15.466 8.70099 15.433 8.75233 15.367 8.78899ZM17.864 6.62199L14.179 6.77599L14.201 7.35899L17.831 7.24899L17.864 6.62199ZM17.93 5.51099L14.124 5.69799L14.157 6.29199L17.897 6.12699L17.93 5.51099ZM17.996 4.47699L14.08 4.67499L14.102 5.22499L17.963 5.03799L17.996 4.47699ZM14.223 7.88699L14.234 8.04099V8.07399C14.234 8.21333 14.1717 8.28299 14.047 8.28299C14.0103 8.28299 13.948 8.27199 13.86 8.24999C13.772 8.22066 13.6877 8.17666 13.607 8.11799C13.5337 8.05199 13.497 7.97133 13.497 7.87599C13.497 7.86133 13.497 7.84666 13.497 7.83199C13.5043 7.81733 13.508 7.80633 13.508 7.79899C13.53 7.65233 13.541 7.51666 13.541 7.39199C13.541 7.35533 13.5373 7.31866 13.53 7.28199C13.53 7.24533 13.53 7.21233 13.53 7.18299L13.398 4.74099C13.3907 4.52833 13.3577 4.36333 13.299 4.24599C13.2623 4.15799 13.244 4.09933 13.244 4.06999C13.244 4.01133 13.2843 3.98199 13.365 3.98199C13.4897 3.98199 13.728 4.04433 14.08 4.16899L18.15 3.94899H18.271C18.4397 3.94899 18.568 3.98933 18.656 4.06999C18.744 4.15066 18.788 4.22399 18.788 4.28999C18.788 4.33399 18.777 4.37433 18.755 4.41099C18.7403 4.44033 18.7293 4.46966 18.722 4.49899L18.513 7.22699C18.6963 7.41033 18.788 7.54233 18.788 7.62299C18.788 7.67433 18.7587 7.70733 18.7 7.72199C18.6413 7.73666 18.5717 7.74766 18.491 7.75499L14.223 7.88699ZM19.404 1.53999L17.369 1.66099L17.479 2.73899L19.283 2.65099L19.404 1.53999ZM17.534 3.25599L17.545 3.39899V3.48699C17.545 3.53833 17.534 3.58233 17.512 3.61899C17.4973 3.64833 17.457 3.66299 17.391 3.66299C17.3617 3.66299 17.303 3.65566 17.215 3.64099C17.1343 3.61899 17.0573 3.58233 16.984 3.53099C16.9107 3.47233 16.874 3.38433 16.874 3.26699V3.02499C16.874 2.95899 16.874 2.89666 16.874 2.83799C16.874 2.77933 16.8703 2.72799 16.863 2.68399L16.764 1.77099C16.7567 1.69033 16.742 1.60966 16.72 1.52899C16.7053 1.44833 16.6723 1.36033 16.621 1.26499C16.599 1.22099 16.577 1.18066 16.555 1.14399C16.5403 1.10733 16.533 1.07799 16.533 1.05599C16.533 1.01199 16.5733 0.989993 16.654 0.989993C16.764 0.989993 17.006 1.03766 17.38 1.13299L19.58 0.989993H19.668C19.8367 0.989993 19.9613 1.03766 20.042 1.13299C20.1227 1.22833 20.163 1.30533 20.163 1.36399C20.163 1.40799 20.152 1.44466 20.13 1.47399C20.108 1.50333 20.0933 1.53266 20.086 1.56199L19.888 2.62899C20.0493 2.81233 20.13 2.94433 20.13 3.02499C20.13 3.07633 20.1007 3.10933 20.042 3.12399C19.9907 3.13133 19.921 3.13866 19.833 3.14599L17.534 3.25599ZM14.938 3.15699C14.9893 3.15699 15.037 3.07633 15.081 2.91499C15.1323 2.75366 15.18 2.55933 15.224 2.33199C15.268 2.09733 15.301 1.88466 15.323 1.69399L14.102 1.78199C13.8893 2.36133 13.5887 2.85999 13.2 3.27799C12.8187 3.69599 12.298 4.07733 11.638 4.42199C11.5207 4.48066 11.4327 4.50999 11.374 4.50999C11.3153 4.50999 11.286 4.48799 11.286 4.44399C11.286 4.37066 11.352 4.28266 11.484 4.17999C11.9827 3.79866 12.3823 3.42833 12.683 3.06899C12.991 2.70966 13.233 2.29899 13.409 1.83699L12.617 1.89199C12.551 1.89933 12.4887 1.90666 12.43 1.91399C12.3787 1.91399 12.3273 1.91399 12.276 1.91399C12.1 1.91399 11.968 1.85533 11.88 1.73799C11.792 1.62066 11.7297 1.51799 11.693 1.42999C11.6857 1.41533 11.682 1.39699 11.682 1.37499C11.682 1.33099 11.7077 1.30899 11.759 1.30899C11.7883 1.30899 11.814 1.31266 11.836 1.31999C11.8947 1.33466 11.9533 1.34566 12.012 1.35299C12.0707 1.36033 12.1257 1.36399 12.177 1.36399C12.2063 1.36399 12.232 1.36399 12.254 1.36399C12.2833 1.35666 12.3127 1.35299 12.342 1.35299L13.585 1.26499C13.6217 1.11099 13.6547 0.953326 13.684 0.791993C13.7133 0.63066 13.728 0.513326 13.728 0.439992C13.728 0.359326 13.717 0.282326 13.695 0.208993C13.6803 0.150326 13.673 0.113659 13.673 0.0989929C13.673 0.0329929 13.706 -7.09295e-06 13.772 -7.09295e-06C13.8233 -7.09295e-06 13.904 0.0183262 14.014 0.0549929C14.124 0.0843262 14.223 0.128326 14.311 0.186992C14.4063 0.245659 14.454 0.315326 14.454 0.395993C14.454 0.41066 14.4503 0.428993 14.443 0.450993C14.443 0.465659 14.443 0.480326 14.443 0.494993C14.399 0.744326 14.344 0.986326 14.278 1.22099L15.488 1.13299H15.565C15.653 1.13299 15.7447 1.16233 15.84 1.22099C15.9647 1.31633 16.027 1.40433 16.027 1.48499C16.027 1.52899 16.016 1.56933 15.994 1.60599C15.9793 1.63533 15.9683 1.66833 15.961 1.70499C15.8657 2.43833 15.7557 2.97733 15.631 3.32199C15.5063 3.66666 15.3267 3.83899 15.092 3.83899C14.9967 3.83899 14.8683 3.79866 14.707 3.71799C14.553 3.62999 14.399 3.52733 14.245 3.40999C14.091 3.29266 13.959 3.18266 13.849 3.07999C13.7463 2.96999 13.695 2.88933 13.695 2.83799C13.695 2.79399 13.7243 2.77199 13.783 2.77199C13.849 2.77199 13.9187 2.79033 13.992 2.82699C14.1753 2.90766 14.3367 2.97366 14.476 3.02499C14.6227 3.07633 14.7657 3.12033 14.905 3.15699H14.938Z" fill="white"/>
</svg>
