<svg width="79" height="10" viewBox="0 0 79 10" fill="none" xmlns="http://www.w3.org/2000/svg">
<path d="M3.94 2.32H4.66V7.67H3.94V2.32ZM1.78 3.81V4.54H6.88V3.81H1.78ZM1.78 2.57V3.29H6.88V2.57H1.78ZM1.05 2.04H7.62V5.08H1.05V2.04ZM0.42 5.68H7.78V6.33H1.14V9.21H0.42V5.68ZM7.58 5.68H8.31V8.44C8.31 8.61334 8.29 8.75 8.25 8.85C8.21 8.95 8.12333 9.02667 7.99 9.08C7.86333 9.13334 7.69333 9.16334 7.48 9.17C7.26667 9.18334 6.99667 9.19 6.67 9.19C6.65667 9.10334 6.62667 9 6.58 8.88C6.54 8.76667 6.49667 8.66334 6.45 8.57C6.68333 8.57667 6.88667 8.58 7.06 8.58C7.24 8.58 7.36 8.58 7.42 8.58C7.48 8.57334 7.52 8.56 7.54 8.54C7.56667 8.52667 7.58 8.49 7.58 8.43V5.68ZM1.76 7.5C2.14667 7.48667 2.59 7.47 3.09 7.45C3.59 7.43 4.12333 7.40667 4.69 7.38C5.26333 7.34667 5.84 7.31667 6.42 7.29L6.41 7.9C5.85 7.93334 5.29333 7.96667 4.74 8C4.18667 8.03334 3.66 8.06334 3.16 8.09C2.66667 8.11 2.22 8.13334 1.82 8.16L1.76 7.5ZM5.47 6.67L6.03 6.49C6.18333 6.67 6.33 6.87 6.47 7.09C6.61 7.30334 6.73333 7.51334 6.84 7.72C6.95333 7.92667 7.03 8.11667 7.07 8.29L6.48 8.5C6.43333 8.32667 6.35667 8.13334 6.25 7.92C6.15 7.70667 6.03 7.49334 5.89 7.28C5.75667 7.06 5.61667 6.85667 5.47 6.67ZM2.17 0.0100033H2.9V1.89H2.17V0.0100033ZM5.68 0.0100033H6.41V1.89H5.68V0.0100033ZM-2.68221e-07 0.620003H8.65V1.27H-2.68221e-07V0.620003ZM11.4 3.45707e-06L12.17 0.190003C12.05 0.463337 11.92 0.750003 11.78 1.05C11.6467 1.34334 11.5067 1.62334 11.36 1.89C11.22 2.15667 11.0833 2.39667 10.95 2.61L10.3 2.43C10.4333 2.21 10.5667 1.96 10.7 1.68C10.84 1.39334 10.97 1.10334 11.09 0.810003C11.2167 0.510003 11.32 0.240003 11.4 3.45707e-06ZM9.72 2.13C10.0667 2.11667 10.4667 2.10334 10.92 2.09C11.3733 2.07 11.8567 2.05 12.37 2.03C12.8833 2.00334 13.4 1.98 13.92 1.96L13.91 2.62C13.4167 2.65334 12.92 2.68334 12.42 2.71C11.9267 2.73667 11.4533 2.76334 11 2.79C10.5533 2.81667 10.1467 2.84 9.78 2.86L9.72 2.13ZM10.32 3.57H13.49V4.21H11.02V9.2H10.32V3.57ZM13.15 3.57H13.89V8.34C13.89 8.53334 13.8667 8.68334 13.82 8.79C13.7733 8.90334 13.68 8.99334 13.54 9.06C13.4 9.11334 13.22 9.14667 13 9.16C12.78 9.17334 12.5133 9.18 12.2 9.18C12.18 9.08 12.1467 8.96334 12.1 8.83C12.0533 8.69667 12.0033 8.58334 11.95 8.49C12.1833 8.49667 12.3967 8.5 12.59 8.5C12.7833 8.50667 12.9167 8.50667 12.99 8.5C13.0567 8.5 13.1 8.48667 13.12 8.46C13.14 8.44 13.15 8.39667 13.15 8.33V3.57ZM10.66 5.07H13.54V5.66H10.66V5.07ZM10.66 6.57H13.54V7.16H10.66V6.57ZM14.83 0.0300031H15.58V3.34C15.58 3.5 15.61 3.60334 15.67 3.65C15.7367 3.69667 15.8867 3.72 16.12 3.72C16.1667 3.72 16.26 3.72 16.4 3.72C16.5467 3.72 16.7067 3.72 16.88 3.72C17.0533 3.72 17.2167 3.72 17.37 3.72C17.5233 3.72 17.6333 3.72 17.7 3.72C17.8333 3.72 17.9333 3.69334 18 3.64C18.0667 3.58 18.1133 3.47 18.14 3.31C18.1667 3.14334 18.1867 2.89334 18.2 2.56C18.26 2.6 18.3267 2.64 18.4 2.68C18.48 2.72 18.5633 2.75667 18.65 2.79C18.7367 2.81667 18.8133 2.83667 18.88 2.85C18.8533 3.25667 18.8033 3.57334 18.73 3.8C18.6567 4.02667 18.5433 4.18334 18.39 4.27C18.2433 4.35667 18.0367 4.4 17.77 4.4C17.7233 4.4 17.64 4.4 17.52 4.4C17.4067 4.4 17.2733 4.4 17.12 4.4C16.9733 4.4 16.8233 4.4 16.67 4.4C16.5233 4.4 16.3933 4.4 16.28 4.4C16.1667 4.4 16.09 4.4 16.05 4.4C15.73 4.4 15.48 4.37 15.3 4.31C15.1267 4.25 15.0033 4.14334 14.93 3.99C14.8633 3.83667 14.83 3.62334 14.83 3.35V0.0300031ZM17.9 0.760003L18.4 1.32C18.1133 1.44667 17.7967 1.57667 17.45 1.71C17.1033 1.83667 16.7467 1.95667 16.38 2.07C16.0133 2.18334 15.6567 2.29 15.31 2.39C15.2967 2.31667 15.2667 2.23 15.22 2.13C15.18 2.02334 15.1367 1.93334 15.09 1.86C15.4167 1.76 15.7533 1.64667 16.1 1.52C16.4467 1.39334 16.7767 1.26667 17.09 1.14C17.4033 1.00667 17.6733 0.880003 17.9 0.760003ZM14.83 4.68H15.57V8.06C15.57 8.22 15.6033 8.32667 15.67 8.38C15.7433 8.42667 15.9 8.45 16.14 8.45C16.1933 8.45 16.2933 8.45 16.44 8.45C16.5867 8.45 16.75 8.45 16.93 8.45C17.1167 8.45 17.2867 8.45 17.44 8.45C17.6 8.45 17.7167 8.45 17.79 8.45C17.93 8.45 18.0367 8.42 18.11 8.36C18.1833 8.3 18.2333 8.17667 18.26 7.99C18.2867 7.79667 18.3067 7.51 18.32 7.13C18.4133 7.19 18.5233 7.24667 18.65 7.3C18.7833 7.35334 18.9 7.39334 19 7.42C18.9733 7.86667 18.9233 8.21334 18.85 8.46C18.7767 8.70667 18.66 8.87667 18.5 8.97C18.3467 9.07 18.13 9.12 17.85 9.12C17.8033 9.12 17.72 9.12 17.6 9.12C17.48 9.12 17.3433 9.12 17.19 9.12C17.0367 9.12 16.88 9.12 16.72 9.12C16.56 9.12 16.42 9.12 16.3 9.12C16.1867 9.12 16.11 9.12 16.07 9.12C15.75 9.12 15.4967 9.09 15.31 9.03C15.13 8.97 15.0033 8.86334 14.93 8.71C14.8633 8.55667 14.83 8.34 14.83 8.06V4.68ZM18.02 5.22L18.51 5.78C18.2367 5.94 17.92 6.09334 17.56 6.24C17.2 6.38 16.8267 6.51334 16.44 6.64C16.0533 6.76 15.68 6.87 15.32 6.97C15.3 6.89667 15.2667 6.80667 15.22 6.7C15.1733 6.59334 15.13 6.50334 15.09 6.43C15.4367 6.33 15.79 6.21334 16.15 6.08C16.5167 5.94667 16.8633 5.80667 17.19 5.66C17.5167 5.51334 17.7933 5.36667 18.02 5.22ZM12.65 0.950003L13.27 0.710003C13.45 0.93667 13.6233 1.18667 13.79 1.46C13.9633 1.72667 14.12 1.99 14.26 2.25C14.4 2.51 14.5067 2.74334 14.58 2.95L13.93 3.24C13.8633 3.03334 13.76 2.79667 13.62 2.53C13.4867 2.26334 13.3333 1.99334 13.16 1.72C12.9933 1.44667 12.8233 1.19 12.65 0.950003Z" fill="#E5622A"/>
<path d="M25.69 1.87H28.92V2.56H25.69V1.87ZM25.9 0.0100033L26.63 0.120003C26.5367 0.753337 26.4167 1.37 26.27 1.97C26.13 2.57 25.9633 3.13334 25.77 3.66C25.5767 4.18667 25.3567 4.64667 25.11 5.04C25.07 5 25.0167 4.94667 24.95 4.88C24.8833 4.81334 24.8133 4.75 24.74 4.69C24.6667 4.62334 24.6 4.57 24.54 4.53C24.7733 4.16334 24.9767 3.74 25.15 3.26C25.3233 2.77334 25.47 2.25334 25.59 1.7C25.7167 1.14667 25.82 0.583337 25.9 0.0100033ZM27.67 2.24L28.38 2.3C28.24 3.40667 28.0367 4.39667 27.77 5.27C27.51 6.13667 27.15 6.9 26.69 7.56C26.23 8.21334 25.64 8.77 24.92 9.23C24.8933 9.18334 24.8533 9.12 24.8 9.04C24.7533 8.96 24.7 8.88 24.64 8.8C24.5867 8.72667 24.5367 8.66667 24.49 8.62C25.17 8.21334 25.72 7.71 26.14 7.11C26.5667 6.50334 26.8967 5.79334 27.13 4.98C27.37 4.16667 27.55 3.25334 27.67 2.24ZM26.06 2.5C26.1933 3.41334 26.38 4.27334 26.62 5.08C26.86 5.88 27.17 6.58667 27.55 7.2C27.9367 7.81334 28.41 8.29 28.97 8.63C28.9167 8.67667 28.8567 8.73334 28.79 8.8C28.7233 8.86667 28.66 8.93667 28.6 9.01C28.5467 9.08334 28.5 9.15334 28.46 9.22C27.8667 8.83334 27.37 8.31334 26.97 7.66C26.5767 7 26.2567 6.24 26.01 5.38C25.7633 4.52 25.5667 3.59 25.42 2.59L26.06 2.5ZM22.04 0.0100033H22.7V5.26H22.04V0.0100033ZM21.04 1.15V2.82H23.77V1.15H21.04ZM20.41 0.620003H24.44V3.34H20.41V0.620003ZM20.8 4.31V4.97H24.01V4.31H20.8ZM20.16 3.8H24.67V5.47H20.16V3.8ZM19.73 6.11C20.1767 6.11 20.6967 6.10667 21.29 6.1C21.8833 6.09334 22.5133 6.08667 23.18 6.08C23.8533 6.06667 24.5267 6.05667 25.2 6.05L25.18 6.61C24.5133 6.62334 23.85 6.64 23.19 6.66C22.53 6.67334 21.9033 6.68334 21.31 6.69C20.7233 6.69667 20.2033 6.70334 19.75 6.71L19.73 6.11ZM21.72 5.31L22.36 5.46C22.2267 5.72667 22.0767 6.01 21.91 6.31C21.75 6.61 21.5867 6.9 21.42 7.18C21.26 7.46 21.1133 7.71 20.98 7.93L20.36 7.75C20.5 7.53 20.65 7.28 20.81 7C20.97 6.72 21.13 6.43334 21.29 6.14C21.45 5.84667 21.5933 5.57 21.72 5.31ZM20.92 7.56L21.3 7.11C21.6867 7.24334 22.0733 7.39334 22.46 7.56C22.8467 7.72 23.21 7.89 23.55 8.07C23.89 8.24334 24.18 8.41 24.42 8.57L23.94 9.05C23.7133 8.88334 23.4367 8.71334 23.11 8.54C22.79 8.36667 22.4433 8.19667 22.07 8.03C21.6967 7.85667 21.3133 7.7 20.92 7.56ZM23.53 6.35L24.17 6.46C24.0433 7.00667 23.8167 7.46334 23.49 7.83C23.1633 8.19 22.7333 8.48334 22.2 8.71C21.6667 8.93667 21.02 9.11667 20.26 9.25C20.24 9.15 20.2 9.04334 20.14 8.93C20.0867 8.82334 20.03 8.73 19.97 8.65C20.6567 8.57 21.2433 8.44 21.73 8.26C22.2167 8.07334 22.6067 7.82667 22.9 7.52C23.1933 7.20667 23.4033 6.81667 23.53 6.35ZM19.72 1.69H20.67V1.72H24.12V1.69H25.15V2.26H24.12V2.23H20.67V2.26H19.72V1.69ZM34.75 2.03H38.76V2.7H34.75V9.22H34.05V2.48L34.48 2.03H34.75ZM34.43 4H38.46V4.67H34.43V4ZM34.42 5.98H38.51V6.65H34.42V5.98ZM34.3 8.03H38.96V8.71H34.3V8.03ZM36.23 2.4H36.92V8.28H36.23V2.4ZM34.83 3.45707e-06L35.55 0.200003C35.3967 0.640003 35.2067 1.09667 34.98 1.57C34.76 2.03667 34.5133 2.49 34.24 2.93C33.9733 3.36334 33.6867 3.75 33.38 4.09C33.3467 4.03667 33.3 3.98 33.24 3.92C33.18 3.85334 33.12 3.79 33.06 3.73C33 3.66334 32.9467 3.61 32.9 3.57C33.18 3.25667 33.4433 2.89667 33.69 2.49C33.9433 2.08334 34.1667 1.66334 34.36 1.23C34.5533 0.79667 34.71 0.38667 34.83 3.45707e-06ZM37.02 0.160003L37.8 0.350003C37.64 0.710003 37.4667 1.08334 37.28 1.47C37.0933 1.85 36.9167 2.17667 36.75 2.45L36.13 2.25C36.2433 2.06334 36.3533 1.84667 36.46 1.6C36.5733 1.35334 36.68 1.10334 36.78 0.850003C36.88 0.59667 36.96 0.36667 37.02 0.160003ZM31.28 0.0100033L31.94 0.260003C31.82 0.50667 31.6867 0.763336 31.54 1.03C31.4 1.29667 31.2567 1.55667 31.11 1.81C30.97 2.05667 30.8367 2.27334 30.71 2.46L30.19 2.23C30.3167 2.03667 30.4467 1.81 30.58 1.55C30.72 1.29 30.85 1.02334 30.97 0.750003C31.0967 0.47667 31.2 0.230003 31.28 0.0100033ZM32.4 1.15L33.03 1.45C32.8033 1.81667 32.55 2.21 32.27 2.63C31.99 3.04334 31.7067 3.44334 31.42 3.83C31.14 4.21667 30.8733 4.55334 30.62 4.84L30.16 4.58C30.3467 4.36 30.5433 4.11 30.75 3.83C30.9567 3.54334 31.16 3.24667 31.36 2.94C31.56 2.62667 31.75 2.31667 31.93 2.01C32.11 1.70334 32.2667 1.41667 32.4 1.15ZM29.69 2.1L30.08 1.62C30.26 1.78 30.44 1.95667 30.62 2.15C30.8067 2.34334 30.9767 2.53334 31.13 2.72C31.2833 2.90667 31.4033 3.07667 31.49 3.23L31.07 3.79C30.9833 3.63 30.8633 3.45 30.71 3.25C30.5633 3.05 30.4 2.85 30.22 2.65C30.04 2.45 29.8633 2.26667 29.69 2.1ZM32.01 3.44L32.56 3.22C32.7 3.43334 32.8333 3.66667 32.96 3.92C33.0867 4.17334 33.2 4.42 33.3 4.66C33.4067 4.89334 33.4833 5.1 33.53 5.28L32.93 5.56C32.89 5.36667 32.82 5.15 32.72 4.91C32.6267 4.66334 32.52 4.41334 32.4 4.16C32.28 3.9 32.15 3.66 32.01 3.44ZM29.6 4.43C30.0333 4.41 30.5467 4.38667 31.14 4.36C31.74 4.32667 32.3533 4.29334 32.98 4.26V4.89C32.3933 4.93 31.81 4.97 31.23 5.01C30.6567 5.04334 30.1433 5.07334 29.69 5.1L29.6 4.43ZM32.31 5.86L32.87 5.7C33.01 6 33.13 6.33 33.23 6.69C33.3367 7.05 33.4067 7.35667 33.44 7.61L32.85 7.8C32.8233 7.54 32.7567 7.23 32.65 6.87C32.55 6.50334 32.4367 6.16667 32.31 5.86ZM30.21 5.73L30.84 5.83C30.7733 6.30334 30.68 6.77 30.56 7.23C30.4467 7.68334 30.3133 8.07 30.16 8.39C30.12 8.36334 30.0633 8.33334 29.99 8.3C29.9167 8.26 29.8433 8.22334 29.77 8.19C29.6967 8.15667 29.6333 8.13 29.58 8.11C29.7467 7.80334 29.88 7.44 29.98 7.02C30.08 6.59334 30.1567 6.16334 30.21 5.73ZM31.27 4.73H31.93V9.21H31.27V4.73ZM39.95 1.31H48.71V2.01H39.95V1.31ZM42.4 4.88H47.09V5.52H42.4V4.88ZM41.87 3.17H46.97V3.85H42.61V9.2H41.87V3.17ZM46.8 3.17H47.54V8.27C47.54 8.49 47.51 8.66 47.45 8.78C47.39 8.90667 47.2767 9.00334 47.11 9.07C46.9433 9.12334 46.7167 9.15334 46.43 9.16C46.15 9.17334 45.7967 9.18 45.37 9.18C45.35 9.08 45.3167 8.96 45.27 8.82C45.2233 8.68 45.1733 8.56 45.12 8.46C45.34 8.46667 45.5467 8.47 45.74 8.47C45.94 8.47667 46.1133 8.47667 46.26 8.47C46.4067 8.47 46.5133 8.47 46.58 8.47C46.6667 8.47 46.7233 8.45334 46.75 8.42C46.7833 8.39334 46.8 8.34 46.8 8.26V3.17ZM43.23 0.0100033L43.99 0.190003C43.7633 0.91667 43.4767 1.63667 43.13 2.35C42.7833 3.06334 42.3667 3.73 41.88 4.35C41.3933 4.96334 40.8333 5.49667 40.2 5.95C40.1667 5.89 40.12 5.82667 40.06 5.76C40 5.68667 39.94 5.61667 39.88 5.55C39.82 5.47667 39.7667 5.41667 39.72 5.37C40.1667 5.06334 40.5733 4.70667 40.94 4.3C41.3133 3.89334 41.6467 3.45667 41.94 2.99C42.2333 2.51667 42.4867 2.03 42.7 1.53C42.9133 1.02334 43.09 0.51667 43.23 0.0100033ZM42.4 6.57H47.09V7.22H42.4V6.57ZM54.19 2.34H57.92V2.98H54.19V2.34ZM52.63 8.34C52.9433 8.28 53.3033 8.21334 53.71 8.14C54.1167 8.06 54.55 7.97667 55.01 7.89C55.47 7.79667 55.9333 7.70334 56.4 7.61L56.46 8.26C55.8267 8.40667 55.1933 8.55 54.56 8.69C53.9333 8.83 53.3733 8.95667 52.88 9.07L52.63 8.34ZM53.76 0.450003H54.49V8.4H53.76V0.450003ZM54.19 0.450003H58.28V4.89H54.19V4.23H57.54V1.11H54.19V0.450003ZM56.13 4.47C56.27 5.09 56.4667 5.67 56.72 6.21C56.9733 6.74334 57.2867 7.21334 57.66 7.62C58.0333 8.02667 58.4667 8.34 58.96 8.56C58.9067 8.60667 58.8467 8.66667 58.78 8.74C58.7133 8.81334 58.6533 8.89 58.6 8.97C58.5467 9.05 58.5 9.12 58.46 9.18C57.9333 8.91334 57.4767 8.55667 57.09 8.11C56.71 7.65667 56.39 7.13334 56.13 6.54C55.87 5.94 55.66 5.28667 55.5 4.58L56.13 4.47ZM58.12 5.12L58.7 5.55C58.4267 5.81 58.1233 6.07334 57.79 6.34C57.4567 6.6 57.15 6.82334 56.87 7.01L56.4 6.62C56.58 6.49334 56.7733 6.34667 56.98 6.18C57.1933 6.00667 57.4 5.82667 57.6 5.64C57.8067 5.45334 57.98 5.28 58.12 5.12ZM50.14 0.440003H52.7V1.12H50.85V9.21H50.14V0.440003ZM52.48 0.440003H52.61L52.73 0.410004L53.23 0.720003C53.13 0.993337 53.0167 1.28667 52.89 1.6C52.7633 1.90667 52.6333 2.21334 52.5 2.52C52.3733 2.82667 52.2467 3.11 52.12 3.37C52.5267 3.78334 52.7933 4.17 52.92 4.53C53.0533 4.89 53.12 5.22334 53.12 5.53C53.1267 5.81 53.0933 6.05 53.02 6.25C52.9533 6.44334 52.8467 6.59334 52.7 6.7C52.6267 6.75334 52.54 6.79334 52.44 6.82C52.3467 6.84667 52.2467 6.87 52.14 6.89C52.0333 6.90334 51.9133 6.91 51.78 6.91C51.6467 6.91 51.5167 6.90667 51.39 6.9C51.3833 6.80667 51.3633 6.69334 51.33 6.56C51.2967 6.42667 51.25 6.31 51.19 6.21C51.3233 6.23 51.4433 6.24 51.55 6.24C51.6633 6.24 51.7633 6.24 51.85 6.24C51.9167 6.22667 51.98 6.21334 52.04 6.2C52.1 6.18667 52.1567 6.16334 52.21 6.13C52.29 6.07667 52.3467 5.99 52.38 5.87C52.4133 5.75 52.43 5.61334 52.43 5.46C52.43 5.18667 52.3633 4.88334 52.23 4.55C52.0967 4.21667 51.83 3.85334 51.43 3.46C51.53 3.23334 51.63 2.99334 51.73 2.74C51.83 2.48667 51.9233 2.23334 52.01 1.98C52.1033 1.72667 52.19 1.48667 52.27 1.26C52.35 1.03334 52.42 0.830003 52.48 0.650003V0.440003ZM63.5 3.63L64.38 3.86C64.22 4.23334 64.0467 4.62667 63.86 5.04C63.68 5.44667 63.4933 5.85667 63.3 6.27C63.1067 6.67667 62.91 7.06667 62.71 7.44C62.51 7.80667 62.32 8.14334 62.14 8.45L61.44 8.22C61.62 7.91334 61.8067 7.57 62 7.19C62.1933 6.81 62.38 6.41334 62.56 6C62.7467 5.58667 62.92 5.17667 63.08 4.77C63.24 4.36334 63.38 3.98334 63.5 3.63ZM60.22 7.99C60.6733 7.97667 61.1867 7.96 61.76 7.94C62.34 7.92 62.9533 7.89667 63.6 7.87C64.2533 7.83667 64.92 7.80667 65.6 7.78C66.2867 7.74667 66.9667 7.71667 67.64 7.69L67.62 8.4C66.7467 8.44667 65.8667 8.49334 64.98 8.54C64.0933 8.59334 63.25 8.64 62.45 8.68C61.6567 8.72 60.9467 8.75334 60.32 8.78L60.22 7.99ZM65.42 5.83L66.13 5.49C66.4367 5.84334 66.7467 6.22334 67.06 6.63C67.3733 7.03 67.6633 7.42334 67.93 7.81C68.1967 8.19667 68.41 8.54334 68.57 8.85L67.82 9.26C67.66 8.94667 67.4467 8.59334 67.18 8.2C66.92 7.8 66.6333 7.39334 66.32 6.98C66.0133 6.56 65.7133 6.17667 65.42 5.83ZM62.49 0.300003L63.32 0.530003C63.1 1.07 62.84 1.59334 62.54 2.1C62.24 2.60667 61.92 3.08 61.58 3.52C61.24 3.95334 60.89 4.33334 60.53 4.66C60.4833 4.60667 60.4167 4.54667 60.33 4.48C60.2433 4.41334 60.1533 4.34667 60.06 4.28C59.9667 4.21334 59.8867 4.16 59.82 4.12C60.1867 3.82 60.5333 3.47 60.86 3.07C61.1933 2.66334 61.5 2.22334 61.78 1.75C62.06 1.27667 62.2967 0.793337 62.49 0.300003ZM66.06 0.300003C66.2267 0.62667 66.4233 0.963337 66.65 1.31C66.8833 1.65667 67.13 1.99667 67.39 2.33C67.65 2.66334 67.91 2.97667 68.17 3.27C68.43 3.56334 68.6767 3.81334 68.91 4.02C68.8433 4.07334 68.77 4.13667 68.69 4.21C68.61 4.28334 68.5333 4.36 68.46 4.44C68.3867 4.52 68.3233 4.59334 68.27 4.66C68.0433 4.42 67.7967 4.14 67.53 3.82C67.27 3.5 67.0067 3.16 66.74 2.8C66.48 2.44 66.2267 2.07334 65.98 1.7C65.7333 1.32 65.5167 0.953337 65.33 0.600003L66.06 0.300003ZM70.2 0.650003H77.74V1.37H70.2V0.650003ZM70.27 2.43H76.3V3.09H70.27V2.43ZM77.44 0.650003H78.2V8.09C78.2 8.34334 78.1667 8.54 78.1 8.68C78.04 8.82667 77.92 8.93334 77.74 9C77.5667 9.06667 77.3233 9.10667 77.01 9.12C76.6967 9.13334 76.3167 9.14 75.87 9.14C75.8633 9.06 75.8433 8.97 75.81 8.87C75.7833 8.77667 75.75 8.68 75.71 8.58C75.6767 8.48 75.6433 8.39334 75.61 8.32C75.8367 8.32667 76.0567 8.33334 76.27 8.34C76.49 8.34 76.68 8.34 76.84 8.34C77.0067 8.33334 77.1267 8.33 77.2 8.33C77.2933 8.33 77.3567 8.31334 77.39 8.28C77.4233 8.24 77.44 8.17334 77.44 8.08V0.650003ZM70.91 4.17H71.64V8.12H70.91V4.17ZM71.5 4.17H75.6V7.37H71.5V6.71H74.87V4.84H71.5V4.17Z" fill="white"/>
</svg>
