<svg width="13" height="15" viewBox="0 0 13 15" fill="none" xmlns="http://www.w3.org/2000/svg">
<g filter="url(#filter0_d_85_166)">
<path d="M4.50034 0C5.20463 0 5.15187 3.22014 5.88058 4.00039C6.45539 4.61474 9 4.74917 9 5.34688C9 5.93966 6.45539 6.07903 5.88058 6.69405C5.15187 7.47385 5.17583 10.6944 4.50034 10.6944C3.82439 10.6944 3.84812 7.47385 3.11941 6.69405C2.5446 6.07903 0 5.93966 0 5.34688C0 4.74917 2.5446 4.61474 3.11941 4.00039C3.84812 3.22014 3.79537 0 4.50034 0Z" fill="url(#paint0_linear_85_166)"/>
</g>
<defs>
<filter id="filter0_d_85_166" x="0" y="0" width="13" height="14.6944" filterUnits="userSpaceOnUse" color-interpolation-filters="sRGB">
<feFlood flood-opacity="0" result="BackgroundImageFix"/>
<feColorMatrix in="SourceAlpha" type="matrix" values="0 0 0 0 0 0 0 0 0 0 0 0 0 0 0 0 0 0 127 0" result="hardAlpha"/>
<feOffset dx="2" dy="2"/>
<feGaussianBlur stdDeviation="1"/>
<feComposite in2="hardAlpha" operator="out"/>
<feColorMatrix type="matrix" values="0 0 0 0 0 0 0 0 0 0 0 0 0 0 0 0 0 0 0.29 0"/>
<feBlend mode="normal" in2="BackgroundImageFix" result="effect1_dropShadow_85_166"/>
<feBlend mode="normal" in="SourceGraphic" in2="effect1_dropShadow_85_166" result="shape"/>
</filter>
<linearGradient id="paint0_linear_85_166" x1="0.46547" y1="3.76766" x2="8.28827" y2="6.98345" gradientUnits="userSpaceOnUse">
<stop offset="0.005" stop-color="#E0CEB1"/>
<stop offset="0.3129" stop-color="#CCB186"/>
<stop offset="0.5158" stop-color="#BD9C68"/>
<stop offset="0.7621" stop-color="#9E753F"/>
<stop offset="1" stop-color="#7B4E14"/>
</linearGradient>
</defs>
</svg>
