<svg width="51" height="120" viewBox="0 0 51 120" fill="none" xmlns="http://www.w3.org/2000/svg">
<path d="M24.5363 0.142992C25.2834 -0.174665 25.905 0.0371773 26.404 0.776105C26.4744 0.987949 26.5104 1.62128 26.5104 2.67809V7.11495C26.5104 7.99621 26.9369 8.43574 27.7902 8.43574H43.687C46.069 8.82336 47.3491 10.1087 47.5279 12.2916V32.5223C47.4564 33.2616 47.2082 33.9671 46.7812 34.6354C45.9277 35.7631 44.9142 36.3612 43.7406 36.4316H27.8442C26.9547 36.4316 26.5106 36.8533 26.5106 37.6987V58.9776C26.5106 60.0342 26.4571 60.7383 26.3507 61.0903C26.1012 61.4784 25.8704 61.7065 25.6564 61.7773C24.661 62.0228 24.038 61.6719 23.7901 60.7207V37.6989C23.7901 36.8535 23.3634 36.4318 22.5098 36.4318H6.61348C4.94131 36.2908 3.75012 35.3403 3.03945 33.5791C2.93259 33.2275 2.84372 32.8925 2.77263 32.5755V12.1858C2.95013 10.4955 3.98116 9.28136 5.86682 8.54133C6.11452 8.47094 6.36377 8.43574 6.61348 8.43574H22.5098C23.3634 8.43574 23.7901 8.01293 23.7901 7.16797V2.62595C23.7901 1.56849 23.8248 0.9532 23.8965 0.776333C24.0029 0.495193 24.2166 0.283782 24.5363 0.142992ZM7.41346 10.8655C6.27447 10.9367 5.5638 11.6051 5.27945 12.8724V31.5717C5.38608 32.8395 6.06077 33.6321 7.30662 33.9484H22.5096C23.3631 33.9484 23.7899 33.526 23.7899 32.6806V12.133C23.7899 11.2881 23.3631 10.8655 22.5096 10.8655H7.41346ZM45.0206 12.9789C44.7356 11.7465 43.9887 11.0419 42.7802 10.8655H27.844C26.9545 10.8655 26.5104 11.2881 26.5104 12.133V32.6276C26.5104 33.5087 26.9369 33.9484 27.7902 33.9484H42.7267C44.1847 33.7375 44.9487 32.9448 45.0206 31.5717V12.9789Z" fill="#E7CEA0"/>
<path d="M18.6239 70.7682C19.6547 70.381 20.277 70.7158 20.4907 71.7717C20.4545 72.1954 19.9211 72.7056 18.8898 73.3037C17.4314 73.8325 15.7777 74.273 13.9293 74.6245C13.0751 74.7659 12.649 75.2587 12.649 76.1043V83.2873C12.649 84.1676 13.0751 84.608 13.9293 84.608H20.6509C21.0776 84.7141 21.3618 84.9602 21.5044 85.3476C21.7181 85.9812 21.5575 86.492 21.0239 86.8796C20.7391 87.0206 20.0641 87.0908 18.9969 87.0908H13.9826C13.0936 87.0908 12.6493 87.302 12.6493 87.7243C12.6493 88.183 12.7912 88.588 13.0754 88.9395C15.7779 92.4258 18.3918 95.9476 20.9172 99.5036C21.2374 99.9614 21.3789 100.402 21.3444 100.824C21.2018 101.564 20.6682 101.899 19.744 101.828C19.3881 101.617 19.1215 101.335 18.9434 100.983C17.4498 98.5187 15.7072 95.9309 13.7158 93.2176C13.0043 92.3029 12.6493 92.2668 12.6493 93.1122V117.04C12.6493 118.097 12.5775 118.801 12.4355 119.153C12.0799 119.646 11.5636 119.788 10.8889 119.576C10.569 119.47 10.3733 119.259 10.302 118.942C10.23 118.765 10.1955 118.15 10.1955 117.093V94.1158V92.6898C10.1238 92.5838 10.0527 92.5488 9.98184 92.5838C8.30989 96.3172 6.49643 99.873 4.54102 103.254C3.75836 104.558 2.94039 105.596 2.08731 106.37C1.5537 106.899 0.948757 106.882 0.273404 106.317C-0.296203 105.65 0.0243671 104.68 1.23378 103.413C4.6823 98.6589 7.42127 93.6406 9.44866 88.3586C9.73257 87.5125 9.44866 87.0908 8.59536 87.0908H1.34064C0.664624 86.8796 0.327167 86.4396 0.327167 85.77C0.361823 85.3127 0.540441 84.9954 0.860345 84.8194C1.18069 84.6784 1.87381 84.608 2.94038 84.608H8.91526C9.76878 84.608 10.1958 84.1852 10.1958 83.3396V76.5791C10.1958 75.7334 9.76878 75.3641 8.91526 75.4701C6.28316 75.7515 4.30953 75.9105 2.99415 75.9448C1.89114 76.1217 1.2871 75.7167 1.18091 74.7305C1.28733 73.9205 1.7674 73.5512 2.62093 73.6207C8.8084 73.3035 14.1424 72.3529 18.6239 70.7682ZM34.1461 70.0292C34.9284 69.6773 35.5148 69.9234 35.9065 70.7682C35.9416 70.9101 35.96 71.508 35.96 72.5641V85.5586C35.7468 89.5029 36.351 93.8874 37.7739 98.7115C38.591 101.493 39.8355 104.31 41.5079 107.163C43.4984 110.614 46.1303 113.818 49.4025 116.776C50.0776 117.233 50.4164 117.797 50.4164 118.466C49.9176 119.629 49.171 119.874 48.1757 119.206C41.8811 113.255 37.6133 106.511 35.3731 98.975L34.8399 96.9676C34.7682 96.8979 34.6971 96.8449 34.6262 96.8099C34.5545 96.8807 34.4129 97.3374 34.1995 98.183C33.5594 100.648 32.5459 103.325 31.1588 106.212C29.6293 109.381 27.727 112.198 25.4512 114.663C23.3525 116.951 21.468 118.483 19.7971 119.259C18.7652 119.787 18.0543 119.487 17.6633 118.361C17.6633 118.22 18.1249 117.656 19.05 116.671L21.1838 114.874C24.4193 112.162 26.873 109.276 28.5454 106.212C30.0027 103.501 31.159 100.684 32.0126 97.7598C32.8301 94.4158 33.3106 90.8582 33.4526 87.0903V72.5639C33.4526 71.5077 33.5237 70.804 33.6663 70.4512C33.7731 70.3115 33.9335 70.1691 34.1461 70.0292ZM21.1305 76.6846C22.1615 76.1567 22.8555 76.4737 23.2108 77.6354C24.278 80.136 25.3797 82.9533 26.518 86.0872C27.6916 89.3617 28.3497 91.6684 28.4921 93.0068C28.7053 93.7462 28.4561 94.2926 27.7454 94.6439C27.176 94.8551 26.6782 94.609 26.2516 93.9039C24.7221 88.2349 22.9617 83.1291 20.9703 78.5862C20.5789 77.6702 20.632 77.0373 21.1305 76.6846ZM46.0421 77.9524C46.1839 76.7898 46.753 76.2801 47.7492 76.4204C48.5669 76.8087 48.7973 77.4592 48.4425 78.3744C47.0912 83.1289 45.7931 87.3548 44.5486 91.0523C44.1216 92.3196 43.6233 93.3762 43.055 94.2214C42.9122 94.5036 42.6096 94.6266 42.1482 94.5909C41.1163 94.2394 40.8139 93.623 41.2413 92.7426C43.4458 87.707 45.0462 82.7775 46.0421 77.9524Z" fill="#E7CEA0"/>
</svg>
