<svg width="500" height="500" viewBox="0 0 500 500" fill="none" xmlns="http://www.w3.org/2000/svg">
<path d="M249.699 0C387.604 0.000263895 499.397 111.795 499.397 249.699C499.397 387.604 387.604 499.398 249.699 499.398C111.794 499.398 0 387.604 0 249.699C0 111.794 111.794 0 249.699 0ZM374.549 406.732C366.526 394.937 345.818 395.036 328.296 406.953C310.774 418.871 303.072 438.094 311.095 449.89C319.117 461.685 339.826 461.585 357.348 449.668C374.869 437.751 382.571 418.528 374.549 406.732ZM181.095 402.953C163.573 391.036 142.865 390.936 134.842 402.731C126.819 414.527 134.521 433.75 152.043 445.668C169.565 457.585 190.273 457.684 198.296 445.889C206.318 434.093 198.616 414.87 181.095 402.953ZM253.795 309.728C229.55 309.728 209.896 328.223 209.896 351.038C209.897 373.853 229.55 392.348 253.795 392.349C278.039 392.348 297.694 373.853 297.694 351.038C297.694 328.223 278.039 309.728 253.795 309.728ZM451.751 310.39C439.562 302.654 420.441 310.941 409.043 328.9C397.645 346.86 398.286 367.69 410.475 375.426C422.663 383.161 441.785 374.873 453.183 356.914C464.58 338.955 463.939 318.126 451.751 310.39ZM97.3467 315.9C85.9489 297.941 66.8284 289.654 54.6396 297.389C42.4509 305.124 41.81 325.955 53.208 343.914C64.6061 361.873 83.7264 370.16 95.915 362.425C108.103 354.689 108.744 333.859 97.3467 315.9ZM350.796 207.887C327.981 207.887 309.485 227.54 309.485 251.785C309.485 276.03 327.981 295.685 350.796 295.685C373.611 295.684 392.105 276.03 392.105 251.785C392.105 227.541 373.611 207.887 350.796 207.887ZM147.796 200.887C124.981 200.887 106.485 220.54 106.485 244.785C106.485 269.03 124.981 288.685 147.796 288.685C170.611 288.684 189.105 269.03 189.105 244.785C189.105 220.541 170.611 200.887 147.796 200.887ZM447.183 152.648C435.785 134.689 416.663 126.401 404.475 134.137C392.286 141.873 391.645 162.703 403.043 180.662C414.441 198.621 433.562 206.909 445.751 199.173C457.939 191.437 458.58 170.607 447.183 152.648ZM90.915 123.137C78.7264 115.401 59.6061 123.689 48.208 141.647C36.81 159.607 37.4509 180.437 49.6396 188.173C61.8285 195.908 80.9489 187.62 92.3467 169.661C103.744 151.702 103.103 130.873 90.915 123.137ZM246.795 105.476C222.55 105.476 202.897 123.97 202.896 146.785C202.896 169.6 222.55 188.096 246.795 188.096C271.039 188.095 290.694 169.6 290.694 146.785C290.694 123.97 271.039 105.476 246.795 105.476ZM347.348 51.9541C329.826 40.0367 309.117 39.9373 301.095 51.7324C293.072 63.5278 300.774 82.7514 318.296 94.6689C335.818 106.586 356.526 106.685 364.549 94.8896C372.571 83.0943 364.869 63.8715 347.348 51.9541ZM188.296 46.7324C180.273 34.9371 159.565 35.0359 142.043 46.9531C124.521 58.8706 116.819 78.0942 124.842 89.8896C132.865 101.685 153.573 101.585 171.095 89.668C188.616 77.7506 196.318 58.5278 188.296 46.7324Z" fill="url(#paint0_radial_396_667)"/>
<defs>
<radialGradient id="paint0_radial_396_667" cx="0" cy="0" r="1" gradientTransform="matrix(192.813 315.33 -315.329 192.813 181.239 103.548)" gradientUnits="userSpaceOnUse">
<stop offset="0.0240385" stop-color="white"/>
<stop offset="0.163462" stop-color="white"/>
<stop offset="0.519231" stop-color="#FFE600"/>
<stop offset="1" stop-color="#A65000"/>
</radialGradient>
</defs>
</svg>
